<svg id="Layer_1" data-name="Layer 1" xmlns="http://www.w3.org/2000/svg" viewBox="0 0 273.67 273.35"><defs><style>.cls-1{fill:#f18e21;}.cls-2{font-size:24.03px;font-family:Roboto-Bold, Roboto;font-weight:700;}.cls-2,.cls-4{fill:#9bc2be;}.cls-3{letter-spacing:-0.02em;}</style></defs><rect class="cls-1" width="273.67" height="273.35" rx="24.45"/><text class="cls-2" transform="translate(56.42 241.44)">Ch7. Hyd<tspan class="cls-3" x="98.51" y="0">r</tspan><tspan x="106.85" y="0">ogen</tspan></text><path class="cls-4" d="M83.45,93.73V54.16H77c0-1.89,0-3.62,0-5.34,0-.3.68-.8,1.05-.8,2.88-.07,5.75-.1,8.62,0A3.15,3.15,0,0,1,90,51a14.39,14.39,0,0,1,0,1.74V93.59h6.35c0-2.58,0-5.16,0-7.75,0-3.47.81-4.25,4.52-4.3.53,0,1.07-.06,1.81-.11,0-3.79,0-7.5,0-11.19A3.35,3.35,0,0,1,106,66.38c2-.18,4,0,6.37,0,0-1,0-2,0-2.95a3,3,0,0,1,3.32-3.19c6.3-.06,12.6,0,18.89,0a3.22,3.22,0,0,1,3.51,3.43c0,.81,0,1.62,0,2.71h5.47c3.06,0,4.09,1,4.1,3.81v11.4c1,0,1.88,0,2.78,0,2.5.07,3.67,1.17,3.71,3.57.05,2.78,0,5.56,0,8.47h6.35V51.88c0-2.87,1.06-3.89,4.06-3.9s5.72,0,8.67,0v6.12h-6.15V93.64c.68,0,1.33.09,2,.09,5.44,0,10.88,0,16.32,0,3,0,4.1,1.08,4.06,3.92-.12,8,1.08,5.34-4.77,11a4.93,4.93,0,0,0-1.73,3.93q.08,40.49,0,81c0,6.39-3.59,11.11-9.62,12.59a18.64,18.64,0,0,1-4.35.46q-43.83,0-87.67,0c-8.56,0-14-5.18-14-13.29q0-40.58,0-81.14a3.55,3.55,0,0,0-1.5-3.31,1.42,1.42,0,0,1-.13-.12c-5-4.73-5-4.73-4.77-11.5.07-2.43,1.13-3.47,3.73-3.49,5.5,0,11,0,16.51,0Zm41.81,106.69h43.45c5.54,0,7.87-2.24,7.87-7.55q0-25.43,0-50.83c0-2.44.67-5.17-.27-7.23s-3.51-3.76-5.42-5.55a11.53,11.53,0,0,0-15.13-.85,3.4,3.4,0,0,0-1.59,3.18q.08,21.76,0,43.52c0,2.9-1.18,4-4.21,4H139.36c-3.53,0-4.49-.9-4.49-4.19q0-21.85,0-43.7a2.87,2.87,0,0,0-.48-1.89,13.42,13.42,0,0,0-16.75-1.23,4,4,0,0,0-2,3.71c.08,14.33,0,28.66,0,43,0,3.28-1.07,4.3-4.45,4.31H100.78c-3.46,0-4.42-.93-4.42-4.25q0-21.85,0-43.7a2.74,2.74,0,0,0-.53-1.86,11.65,11.65,0,0,0-16.36.07c-1.43,1.35-2.8,2.76-4.29,4.05a3.43,3.43,0,0,0-1.24,2.89c0,19,.12,37.95,0,56.93,0,4.74,3.4,7.24,7.56,7.2C96,200.34,110.65,200.42,125.26,200.42Zm-29-78.55V100H67.1a11.31,11.31,0,0,0,1.25,2.39c1.3,1.39,2.88,2.55,4.07,4a6.1,6.1,0,0,1,1.45,3.36c.16,4.69.06,9.39.07,14.08,0,.55.06,1.09.11,1.92C80.64,119.44,88,118.27,96.24,121.87Zm58.08-.06c8.35-3.55,15.67-2.29,22.27,4,0-3.77.32-7.15-.08-10.45-.64-5.39.73-9.75,5.54-13,.62-.42.77-1.47,1.25-2.48h-29Zm-19.57.11V100h-18.9v21.87A20.51,20.51,0,0,1,134.75,121.92ZM109.3,72.57v8.9c.52,0,.94.06,1.36.07,4.34.07,5,.74,5,4.95v7.13h19.18c0-3,0-5.78,0-8.61,0-2.32,1.12-3.39,3.56-3.46.88,0,1.76,0,2.77,0V72.62h-3.08c0,.85,0,1.6,0,2.34,0,2.38-1.23,3.53-3.71,3.54q-9.16,0-18.33,0c-2.54,0-3.63-1.06-3.69-3.51,0-.78,0-1.57,0-2.42ZM103,132.25v40.58h6.09V132.25Zm38.52,0v40.58h6.07V132.25Zm6.1-6.32V100H141.5v26Zm-44.64,0H109V100H103Zm16-59.49v5.8h12.55v-5.8Zm22.54,27.17h6.11v-5.8h-6.11Zm-32.36,0V87.81H103v5.81Z" transform="translate(0.22 0.16)"/><path class="cls-4" d="M57.74,63.27C50.48,63.22,44.93,57.74,45,50.73c.07-6.54,5.92-11.92,12.92-11.89A12.51,12.51,0,0,1,70.66,51.42C70.59,58,64.74,63.33,57.74,63.27ZM51.5,51.05a6.33,6.33,0,0,0,12.66,0,6.34,6.34,0,0,0-12.66,0Z" transform="translate(0.22 0.16)"/><path class="cls-4" d="M176.59,66.29c0-6.84,5.71-12.18,13-12.15,7,0,12.79,5.5,12.77,12.2s-5.8,12.18-13,12.16A12.45,12.45,0,0,1,176.59,66.29Zm12.78,6a6,6,0,1,0,0-12,6,6,0,1,0,0,12Z" transform="translate(0.22 0.16)"/><path class="cls-4" d="M215.17,63.27c-7.18,0-12.93-5.42-12.9-12.23s5.73-12.18,12.79-12.2S228,44.38,228,51.11,222.24,63.25,215.17,63.27ZM215,45a6.06,6.06,0,1,0,6.43,6A6.16,6.16,0,0,0,215,45Z" transform="translate(0.22 0.16)"/><path class="cls-4" d="M176.59,35.76A12.55,12.55,0,0,1,189.42,23.6c7.07,0,12.94,5.6,12.9,12.32s-5.88,12.17-12.88,12.17S176.54,42.56,176.59,35.76Zm19.2.07A6.39,6.39,0,0,0,183,35.76a6.38,6.38,0,0,0,12.76.07Z" transform="translate(0.22 0.16)"/><path class="cls-4" d="M167,170a3.17,3.17,0,0,1-3.35,3,3,3,0,1,1,.11-6A3.16,3.16,0,0,1,167,170Z" transform="translate(0.22 0.16)"/><path class="cls-4" d="M90,194.31a3.19,3.19,0,0,1-3.3,3,3,3,0,1,1,0-6.05A3.18,3.18,0,0,1,90,194.31Z" transform="translate(0.22 0.16)"/><path class="cls-4" d="M154.17,194.31a3.19,3.19,0,0,1-3.3,3,3,3,0,1,1,0-6.05A3.19,3.19,0,0,1,154.17,194.31Z" transform="translate(0.22 0.16)"/><path class="cls-4" d="M131.63,166.82a3.18,3.18,0,0,1-6.36.21,3,3,0,0,1,3.06-3.18A3.06,3.06,0,0,1,131.63,166.82Z" transform="translate(0.22 0.16)"/><path class="cls-4" d="M86.76,179.14a3.29,3.29,0,0,1-3.37,3,3.25,3.25,0,0,1-3.13-3.24,3.26,3.26,0,0,1,6.5.22Z" transform="translate(0.22 0.16)"/><path class="cls-4" d="M125.28,185.24a3.22,3.22,0,0,1-3.38,3,3.18,3.18,0,0,1-3.12-3.2,3.26,3.26,0,0,1,6.5.23Z" transform="translate(0.22 0.16)"/><path class="cls-4" d="M134.88,185a3.19,3.19,0,0,1,3.28-2.87,3.25,3.25,0,0,1,3.16,3.2,3.19,3.19,0,0,1-3.42,2.92A3.08,3.08,0,0,1,134.88,185Z" transform="translate(0.22 0.16)"/><path class="cls-4" d="M93.11,163.78a3.18,3.18,0,1,1-3.28-3A3.16,3.16,0,0,1,93.11,163.78Z" transform="translate(0.22 0.16)"/><path class="cls-4" d="M105.94,188.28a3.18,3.18,0,1,1-3.15-3.15A3.14,3.14,0,0,1,105.94,188.28Z" transform="translate(0.22 0.16)"/><path class="cls-4" d="M166.9,191.31a3.09,3.09,0,1,1,.21-6.17,3.12,3.12,0,0,1,3,3.09A3.16,3.16,0,0,1,166.9,191.31Z" transform="translate(0.22 0.16)"/></svg>