<?xml version="1.0" encoding="UTF-8"?><svg id="Layer_1" xmlns="http://www.w3.org/2000/svg" viewBox="0 0 273.67 273.35"><defs><style>.cls-1,.cls-2{fill:#9bc2be;}.cls-3{fill:#f37979;}.cls-2{font-family:Roboto-Bold, Roboto;font-size:24.03px;font-weight:700;}</style></defs><rect class="cls-3" width="273.67" height="273.35" rx="24.45" ry="24.45"/><g><text class="cls-2" transform="translate(38.12 233.83)"><tspan x="0" y="0">Sustainable Energy</tspan><tspan x="65.41" y="28.84">Course</tspan></text><g><path class="cls-1" d="M154.92,112.28c0,.81,0,1.34,0,1.86,.09,17.02,.19,34.03,.23,51.05,0,1.39,.4,1.82,1.87,2.12,3.44,.71,6.97,1.43,10.16,2.82,6.46,2.81,10.2,8.8,9.71,16.07-.27,3.92-1.48,7.46-3.41,10.89-3.66,6.5-13.76,7.96-18.13,.05-2.65-4.8-3.78-10-4.42-15.33-.4-3.36-.62-6.73-.95-10.41h-61.62c0,1.5-.09,3.2,.02,4.89,.53,8.51-1.76,12.36-11.72,15.78-2.93,1.01-6.21,1.18-9.35,1.43-2.86,.23-5.75,.07-8.63,.04-2.12-.02-3.14-1-3.18-3.08-.05-2.43-.01-4.87-.01-7.57-1.92,0-3.73,.01-5.54,0-2-.02-3.26-1.06-3.22-2.63,.04-1.4,1.35-2.44,3.22-2.48,1.76-.03,3.52,0,5.41,0v-16.28c-1.73,0-3.48,.01-5.22,0-2.03-.02-3.38-1-3.41-2.46-.03-1.58,1.28-2.55,3.48-2.56,1.7,0,3.39,0,5.28,0,0-2.43-.02-4.68,0-6.92,.02-2.43,.89-3.47,3.39-3.41,5.36,.12,10.78,.04,16.05,.85,3.04,.47,6.01,2.25,8.69,3.92,3.35,2.1,4.79,5.44,4.75,9.34-.02,1.89,0,3.78,0,5.92h61.31v-52.27c-.99,.51-1.77,.8-2.41,1.27-9.43,6.86-20.1,11.4-30.95,15.6-8.48,3.28-17.14,6-26.25,6.91-3.28,.33-6.71-.03-9.97-.61-3.62-.64-5.55-3.87-4.25-7.15,.84-2.11,2.44-4.04,4.04-5.74,1.76-1.87,3.82-3.53,5.92-5.04,10.85-7.82,23.05-13.08,35.72-17.34,6.32-2.13,12.81-3.78,19.52-5.74-.31-1.26-.7-2.9-1.12-4.54-2.64-10.36-3.18-20.91-2.83-31.51,.3-8.92,1.19-17.8,3.97-26.36,.86-2.63,2.02-5.26,3.57-7.56,3.21-4.77,8.37-4.71,11.67,0,2.43,3.48,3.55,7.49,4.65,11.53,3.8,14,3.51,28.2,2.32,42.44-.24,2.89-.8,5.77-1.37,8.62-.37,1.82-1.05,3.59-1.57,5.31,4.23,1.2,8.34,2.26,12.38,3.54,9.91,3.14,19.18,7.62,28.3,12.47,6.95,3.7,13.34,8.13,19.17,13.29,2.09,1.85,3.93,4.13,5.33,6.52,3,5.09,.22,9.55-5.86,9.86-5.08,.26-9.95-.79-14.81-2.03-9.93-2.53-19.15-6.66-28.19-11.32-7.63-3.93-14.74-8.58-21.74-14.05Zm3.39-49.09c.08-7.75-.56-17-3.03-26.02-.77-2.83-2.01-5.58-3.34-8.23-.81-1.62-1.84-1.52-2.85,.03-.9,1.38-1.84,2.79-2.38,4.31-.86,2.4-1.52,4.88-2.08,7.37-2.31,10.3-2.61,20.77-2.13,31.24,.4,8.79,1.57,17.51,4.72,25.85,.59,1.57-.23,2.98-1.96,3.35-1.25,.27-2.54,.35-3.8,.56-13.67,2.32-26.34,7.42-38.64,13.45-6.38,3.13-12.6,6.59-17.89,11.37-1.2,1.08-2.31,2.31-3.22,3.63-1.11,1.61-.75,2.25,1.23,2.7,.53,.12,1.1,.2,1.64,.15,3.22-.29,6.48-.38,9.64-.98,9.69-1.83,18.9-5.15,27.92-8.95,3.97-1.67,7.78-3.72,11.67-5.58,6.35-3.05,11.87-7.23,17.1-11.79,1.82-1.59,2.76-1.62,4.67-.04,3.9,3.22,7.73,6.55,11.89,9.44,8.08,5.62,17,9.83,26.19,13.37,5.59,2.16,11.41,3.82,17.21,5.37,2.67,.71,5.55,.78,8.35,.86,2.26,.06,2.81-.86,1.52-2.58-1.59-2.12-3.44-4.12-5.43-5.89-8.14-7.26-17.75-12.31-27.57-17.05-9.9-4.78-20.07-8.66-31.1-10.1-2.07-.27-2.84-1.52-2.26-3.43,3.05-10.07,3.98-20.4,3.92-32.39ZM60.86,188.33c2.16,0,4.11-.06,6.05,.01,4.65,.17,8.96-.86,12.9-3.26,1.96-1.2,3.21-2.8,3.19-5.24-.06-6.66,.05-13.31-.09-19.97-.03-1.31-.65-2.79-1.46-3.86-.74-.99-2.05-1.61-3.19-2.27-5.44-3.2-11.44-2.66-17.41-2.57v37.15Zm94.48-16.34c.24,3.2,.33,6.04,.69,8.85,.59,4.59,1.51,9.09,3.54,13.35,1.73,3.61,6.76,4.58,9.22,.26,1.04-1.83,1.72-3.93,2.14-5.99,1.49-7.27-1.48-12.47-8.37-14.74-2.23-.74-4.59-1.1-7.22-1.72Z"/><path class="cls-1" d="M204.46,53.92c-.82,.93-1.28,1.83-2.03,2.21-1.27,.66-2.62,.53-3.6-.72-1.12-1.41-2.18-2.87-3.34-4.24-5.3-6.3-11.87-11.13-19.18-14.92-4.17-2.16-8.74-3.61-13.1-5.43-.85-.36-1.88-.79-2.31-1.49-.37-.61-.32-1.88,.12-2.44,.85-1.08,2.23-1.41,3.63-.91,2.92,1.04,5.87,2.02,8.73,3.19,11.32,4.62,20.84,11.53,28.19,21.16,.87,1.14,1.8,2.25,2.89,3.6Z"/><path class="cls-1" d="M73.02,112.74c.13-10.24,1.69-19.15,5.64-27.54,1.44-3.05,3.29-5.91,5.04-8.81,.82-1.36,2.43-1.76,3.64-1.1,1.27,.7,1.72,2.3,.84,3.73-3.93,6.37-6.44,13.22-8.32,20.43-1.7,6.52-1.5,13.01-1.2,19.57,.01,.24,.08,.47,.11,.7,.21,1.82-.76,3.17-2.41,3.38-1.27,.16-2.43-.89-2.81-2.53-.05-.23-.09-.47-.1-.71-.17-2.73-.34-5.46-.44-7.14Z"/><path class="cls-1" d="M173.41,167.43c-1.52-.4-2.35-1.22-2.51-2.53-.18-1.47,.48-2.59,2.06-2.9,2.33-.45,4.71-.7,7.02-1.22,7.44-1.65,14.51-4.25,20.74-8.61,4.05-2.83,7.9-5.95,11.71-9.08,1.37-1.13,2.68-1.39,4.17-.66,1.57,.77,1.63,2.72,.15,4.05-8.86,8-18.59,14.62-30.39,17.85-4.27,1.17-8.63,2.07-12.95,3.09Z"/><path class="cls-1" d="M89.12,107.87c.05-4.33,1.06-8.47,2.84-12.43,.78-1.74,2.72-2.66,4.27-2.06,1.48,.57,1.92,2.22,1,4.13-1.93,4.01-2.77,8.23-2.57,12.63,.08,1.74-.74,2.67-2.44,2.97-1.59,.29-2.95-.64-3.09-2.23-.09-1-.02-2.02-.02-3.03Z"/><path class="cls-1" d="M182.88,54.57c-.66,.79-1.13,1.92-1.81,2.06-.98,.2-2.29-.05-3.16-.58-1.36-.83-2.37-2.21-3.72-3.08-2.57-1.67-5.22-3.25-7.95-4.68-1.91-1-2.7-2.17-2.03-3.77,.63-1.49,2.22-1.91,4.2-1.02,4.8,2.15,9.34,4.67,12.85,8.62,.57,.64,.95,1.44,1.61,2.46Z"/><path class="cls-1" d="M200.1,139.26c-.59,.88-.9,1.68-1.49,2.19-4.27,3.69-9.31,6-14.79,7.42-1.76,.45-2.95-.24-3.39-1.81-.41-1.46,.33-2.69,2.08-3.18,4.73-1.32,9.14-3.19,12.9-6.4,.63-.53,2.08-.51,3-.24,.66,.2,1.07,1.23,1.69,2.02Z"/><path class="cls-1" d="M78.5,171.1c0,1.6,.01,3.2,0,4.81-.04,3.8-3.01,7.3-6.83,7.96-1.38,.24-2.56-.12-3.11-1.55-.57-1.49-.04-2.8,1.36-3.23,2.97-.91,3.44-2.88,3.25-5.51-.18-2.54-.06-5.1-.03-7.65,.02-2.12,1.03-3.34,2.71-3.35,1.64-.01,2.64,1.24,2.66,3.36,.01,1.72,0,3.44,0,5.16Z"/></g></g></svg>