<svg id="Layer_1" data-name="Layer 1" xmlns="http://www.w3.org/2000/svg" viewBox="0 0 273.67 273.35"><defs><style>.cls-1{fill:#f18e21;}.cls-2{font-size:24.03px;font-family:Roboto-Bold, Roboto;font-weight:700;}.cls-2,.cls-3{fill:#9bc2be;}</style></defs><rect class="cls-1" width="273.67" height="273.35" rx="24.45"/><text class="cls-2" transform="translate(36.86 218.19)">Ch9. Batteries and <tspan x="9.89" y="28.84">Electric Vehicles</tspan></text><path class="cls-3" d="M57.17,167.27l-.83-.48c-5.19-2.91-7.81-8.06-8.27-15.18-.73-11.28,1.73-21.07,8.1-29.14a3.36,3.36,0,0,0,.64-2,83.23,83.23,0,0,0-.6-8.38,22.44,22.44,0,0,1,2-13.69c1.57-3.15,2.9-6.5,4.2-9.85a75.41,75.41,0,0,1,9.37-16.91c4.39-6,10-8.55,16.11-10C99,59,110.27,59,121.54,59.77a66.36,66.36,0,0,1,24.69,6.14,122.38,122.38,0,0,1,28.21,19.31A197.87,197.87,0,0,1,196,107.73a7.1,7.1,0,0,0,2,1.65c4.77,2.66,9.56,5.28,14.35,7.9a30.78,30.78,0,0,1,11.5,11.3,26.6,26.6,0,0,1,4,16.23c-.36,5-.84,9.92-1.54,14.82-1,6.74-6.15,12.3-11.52,12.64a42.16,42.16,0,0,1-4.9,0c-.94-.05-1.39.19-1.64,1.56-2,10.59-9.23,17.9-17.6,17.86s-15.53-7.25-17.54-17.93c-.23-1.26-.67-1.47-1.55-1.47q-38.53,0-77.07,0c-.88,0-1.29.21-1.52,1.49-2,10.78-9.34,18.15-17.83,18s-15.58-7.59-17.46-18.35C57.41,171.51,57.37,169.49,57.17,167.27Zm149.91-45c-4.12-2.24-8.17-4.41-12.19-6.65a7.41,7.41,0,0,1-2.18-1.75,181.85,181.85,0,0,0-21.66-22.7c-12.19-10.64-25-19.58-39.8-22.76-2.32-.5-4.67-.76-7.13-1.16V70c0,9.85.17,19.71-.06,29.55-.13,5.59,2.59,10.22,7.89,10.15,17-.21,34.07-.08,51.11-.06a5.9,5.9,0,0,1,2.25.31c1.43.59,2,2,1.87,3.88s-1,2.84-2.43,3.12a5.44,5.44,0,0,1-1.14,0q-26.13,0-52.25,0c-7.69,0-13-6.84-13.05-16.6q0-15.51,0-31v-2.3c-.48-.07-.79-.15-1.11-.17a99.19,99.19,0,0,0-27.8,1.89c-3.75.82-7.58,1.76-10.65,4.84-6.17,6.19-10.08,14.53-13,23.19,1.79,1.68,3.73,3,5.12,4.9a9,9,0,0,1-1.78,12.61,15.54,15.54,0,0,1-3,1.52c-1.06.45-2.62.35-3.12,1.25-.59,1.06-.28,2.93-.34,4.45-.07,1.87-.11,3.62-1.39,5.08-5.85,6.71-8.17,15.14-7.26,25.06.35,3.86,1.63,6.81,4.74,8.18.19-.49.35-.92.52-1.35,3.55-9.07,10.57-13.87,18.7-12.8,7,.93,13.25,8,15.05,17.27.3,1.54.73,1.95,1.92,1.95q38.29-.06,76.58,0c1.11,0,1.54-.34,1.82-1.83,1.79-9.51,8.41-16.79,15.65-17.41,8.49-.74,15.57,4.7,18.61,14.26.52,1.65.78,4,1.75,4.71,1.16.86,3,.32,4.48.38l.33,0c2.88-.29,5.12-2,6.35-5.32a22.17,22.17,0,0,0,.88-5.24c.39-3.6.67-7.23,1-10.91C211.25,144.39,204.66,136,207.08,122.3Zm-144,46.25c0,8.65,5.53,15.79,12.29,15.83s12.5-7.12,12.48-15.82-5.63-15.73-12.39-15.74S63.08,159.94,63.06,168.55Zm127.72,15.83c6.76,0,12.35-7.14,12.37-15.76s-5.58-15.74-12.35-15.8-12.49,7.22-12.45,15.89S184,184.39,190.78,184.38Zm30-48.4a23.41,23.41,0,0,0-8.27-10.21C211.54,132.45,214.94,136.67,220.82,136Zm-159-26.28c1.54-.57,2.88-1,4.19-1.59a1,1,0,0,0,.34-1.83,29.85,29.85,0,0,0-3.7-2.24c-.3,1.33-.63,2.65-.89,4A8.57,8.57,0,0,0,61.78,109.7Z" transform="translate(0.22 0.16)"/><path class="cls-3" d="M125,24c.18-.67.34-1.25.48-1.83C127.42,14.3,133,9,139.54,8.83c3.76-.06,7.51,0,11.27,0,2.48,0,3.54,1.39,3.59,4.59,0,1.16,0,2.32,0,3.73,2.82,0,5.47-.06,8.12,0,1.79,0,3.08,1.8,3,3.84a3.36,3.36,0,0,1-3.07,3.52c-.65,0-1.3,0-2,0h-6v6.29H162a3.35,3.35,0,0,1,3.51,3.59A3.46,3.46,0,0,1,162,38.23c-2.44,0-4.89,0-7.59,0,0,1.49,0,2.84,0,4.19-.08,2.42-1.07,4.06-2.81,4.07-4.73,0-9.5.31-14.18-.37-6.06-.87-10-5.69-11.92-13-.24-.91-.28-1.81-1.39-1.8-10,.11-20.06-.52-30,.37-18.68,1.66-31.86,14-39.58,35.73A65.88,65.88,0,0,0,50.9,89.62c0,8,0,16.09,0,24.13a4,4,0,0,0,1.45,3.6,4.1,4.1,0,0,1,1,4.89c-.76,1.69-2.34,2.32-3.82,1.38a9.09,9.09,0,0,1-4.31-8c-.12-10-.34-20,0-30,1.1-28.39,17.86-53.58,39.71-59.78A53.47,53.47,0,0,1,97.85,24.1c8.43-.27,16.87-.08,25.31-.08Zm23.55-7.8c-3.2,0-6.28-.06-9.37,0-4.58.11-8.2,4.51-8.75,10.55-.49,5.34,2.51,11.09,6.89,11.88,3.65.65,7.43.13,11.23.13Z" transform="translate(0.22 0.16)"/><path class="cls-3" d="M96.21,117q-9.3,0-18.6,0c-2.24,0-3.42-1.23-3.46-3.53s1.21-3.82,3.46-3.83q18.69,0,37.37,0c1.61,0,3.09.64,3.3,2.84a6.77,6.77,0,0,1-1,3.76c-.38.63-1.48.74-2.25.74C108.72,117,102.47,117,96.21,117Z" transform="translate(0.22 0.16)"/></svg>