<svg id="Layer_1" data-name="Layer 1" xmlns="http://www.w3.org/2000/svg" viewBox="0 0 273.67 273.35"><defs><style>.cls-1{fill:#f18e21;}.cls-2{font-size:24.03px;font-family:Roboto-Bold, Roboto;font-weight:700;}.cls-2,.cls-3{fill:#9bc2be;}</style></defs><rect class="cls-1" width="273.67" height="273.35" rx="24.45"/><text class="cls-2" transform="translate(7.67 222.41)">Ch11. SDG7: Affordable <tspan x="35.15" y="28.84">and Clean Energy </tspan></text><path class="cls-3" d="M136.55,48.31A52.58,52.58,0,1,1,84,99.61,52.49,52.49,0,0,1,136.55,48.31Zm-8.16,26.13c-9.61,2.49-20.71,13.38-19.14,29.13,1.37,13.79,14.08,24.84,28.15,24.31a27.5,27.5,0,0,0,26.53-27,27.45,27.45,0,0,0-19.25-26.52c0,.61-.08,1-.09,1.45,0,2.45,0,4.9,0,7.36a2.08,2.08,0,0,0,1.18,2.06,17.26,17.26,0,0,1,8.58,13.89,17.74,17.74,0,0,1-20.37,19c-7.48-1.13-12.51-5.49-14.57-12.73s0-13.66,5.78-18.7c1-.92,2.57-1.57,3.08-2.7s.14-2.8.14-4.22Zm12.07,3.67c0-2.89,0-5.78,0-8.67a3.94,3.94,0,0,0-3.89-4.08,4,4,0,0,0-4,4.09q0,8.61,0,17.22a4,4,0,1,0,7.92,0C140.48,83.81,140.46,81,140.46,78.11Z" transform="translate(0.22 0.16)"/><path class="cls-3" d="M212.52,96.11c3.64,0,7.28,0,10.91,0a4.32,4.32,0,1,1,.07,8.63q-11,0-21.95,0a4.38,4.38,0,0,1-4.58-4.42,4.33,4.33,0,0,1,4.63-4.21Z" transform="translate(0.22 0.16)"/><path class="cls-3" d="M60.57,96.11c3.63,0,7.27,0,10.91,0a4.32,4.32,0,1,1,.07,8.62q-11,0-22.07,0a4.31,4.31,0,1,1,.05-8.62C53.21,96.1,56.89,96.11,60.57,96.11Z" transform="translate(0.22 0.16)"/><path class="cls-3" d="M132.19,176.33c0-3.56,0-7.12,0-10.68,0-2.82,1.78-4.75,4.34-4.75s4.3,1.94,4.3,4.78c0,7.27,0,14.55,0,21.83a4.26,4.26,0,0,1-3.15,4.24A4.09,4.09,0,0,1,133,190a5.87,5.87,0,0,1-.78-2.78C132.14,183.61,132.19,180,132.19,176.33Z" transform="translate(0.22 0.16)"/><path class="cls-3" d="M140.83,24.52v10.8a4.32,4.32,0,1,1-8.63.06q0-10.92,0-21.83a4.33,4.33,0,0,1,4.35-4.62c2.51,0,4.27,1.93,4.28,4.67Z" transform="translate(0.22 0.16)"/><path class="cls-3" d="M93.6,20.56a4,4,0,0,1,3.23,2.19c3.67,6.42,7.37,12.82,11,19.24a4.3,4.3,0,1,1-7.46,4.24q-5.53-9.61-11-19.23C87.68,24.05,89.69,20.56,93.6,20.56Z" transform="translate(0.22 0.16)"/><path class="cls-3" d="M188.41,68.15a4.13,4.13,0,0,1,2.18-3.8q9.63-5.5,19.23-11a4.37,4.37,0,0,1,6,1.46,4.31,4.31,0,0,1-1.67,5.94q-9.65,5.58-19.33,11.12A4.2,4.2,0,0,1,188.41,68.15Z" transform="translate(0.22 0.16)"/><path class="cls-3" d="M84.61,132.68a4.12,4.12,0,0,1-2.18,3.8L63.2,147.53a4.29,4.29,0,1,1-4.33-7.41Q68.52,134.54,78.2,129A4.22,4.22,0,0,1,84.61,132.68Z" transform="translate(0.22 0.16)"/><path class="cls-3" d="M108.76,156.74a13.17,13.17,0,0,1-.8,2.18q-5.49,9.69-11.06,19.35a4.35,4.35,0,0,1-5.79,1.61,4.27,4.27,0,0,1-1.75-5.65q5.64-10,11.42-20a4.28,4.28,0,0,1,4.9-1.73A4.51,4.51,0,0,1,108.76,156.74Z" transform="translate(0.22 0.16)"/><path class="cls-3" d="M164.26,44.09A11.93,11.93,0,0,1,165,42q5.53-9.75,11.12-19.46a4.39,4.39,0,0,1,5.81-1.6,4.28,4.28,0,0,1,1.72,5.66q-5.64,10-11.42,20a4.12,4.12,0,0,1-4.77,1.73A4.56,4.56,0,0,1,164.26,44.09Z" transform="translate(0.22 0.16)"/><path class="cls-3" d="M168.78,152.34a4,4,0,0,1,3.74,2.07q5.58,9.72,11.16,19.44a4.26,4.26,0,0,1-.6,5.16,4.16,4.16,0,0,1-5,.8,4.71,4.71,0,0,1-1.77-1.66q-5.66-9.68-11.18-19.43A4.16,4.16,0,0,1,168.78,152.34Z" transform="translate(0.22 0.16)"/><path class="cls-3" d="M192.87,128.21a11,11,0,0,1,2,.67q9.79,5.55,19.56,11.18a4.29,4.29,0,0,1-4.25,7.45q-9.84-5.59-19.65-11.25a4.28,4.28,0,0,1-1.9-4.93A4.42,4.42,0,0,1,192.87,128.21Z" transform="translate(0.22 0.16)"/><path class="cls-3" d="M84.57,68.28A4.22,4.22,0,0,1,78.33,72c-6.58-3.69-13.12-7.46-19.66-11.23a4.28,4.28,0,0,1,4.27-7.43q9.8,5.56,19.56,11.18A4,4,0,0,1,84.57,68.28Z" transform="translate(0.22 0.16)"/></svg>