<?xml version="1.0" encoding="UTF-8"?><svg id="Layer_1" xmlns="http://www.w3.org/2000/svg" viewBox="0 0 273.67 273.35"><defs><style>.cls-1{letter-spacing:0em;}.cls-2{fill:#f07522;font-family:Roboto-Black, Roboto;font-size:49px;font-weight:800;}.cls-3{letter-spacing:0em;}.cls-4{fill:#f1b84a;}.cls-5{letter-spacing:-.01em;}.cls-6{fill:#9bc2be;stroke:#f37979;stroke-miterlimit:10;stroke-width:8px;}</style></defs><rect class="cls-4" width="273.67" height="273.35" rx="24.45" ry="24.45"/><g><text class="cls-2" transform="translate(46.47 236.5)"><tspan class="cls-5" x="0" y="0">F</tspan><tspan class="cls-3" x="26.29" y="0">o</tspan><tspan class="cls-1" x="53.81" y="0">r</tspan><tspan x="72.78" y="0">ward</tspan></text><path class="cls-6" d="M129.34,86.13c0-.97,0-1.64,0-2.31,0-14.08-.03-28.16,.01-42.23,.02-8.16,4.37-14.15,11.47-15.69,4.5-.98,8.44,.54,11.93,3.81,8.12,7.63,16.29,15.2,24.44,22.8,15.03,14.01,30.04,28.03,45.08,42.02,6.04,5.61,7.68,13.34,4.02,20.1-.95,1.76-2.28,3.36-3.7,4.69-23.23,21.73-46.56,43.33-69.73,65.13-8.46,7.96-20.06,3.31-22.8-6.51-.53-1.9-.68-3.99-.69-5.99-.06-13.82-.03-27.65-.03-41.47,0-.69,0-1.37,0-2.37-.56,.39-.94,.6-1.25,.89-19.8,18.46-39.68,36.83-59.36,55.44-8.44,7.99-20.29,3.31-22.92-6.84-.39-1.5-.56-3.11-.56-4.68-.03-43.88-.02-87.77-.02-131.65,0-6.53,2.64-11.38,7.93-14.15,5.37-2.81,10.5-1.94,15.07,2.26,6.74,6.2,13.41,12.49,20.11,18.74,13.27,12.38,26.54,24.76,39.81,37.14,.28,.27,.63,.46,1.19,.86Z"/></g></svg>