<?xml version="1.0" encoding="UTF-8"?><svg id="Layer_1" xmlns="http://www.w3.org/2000/svg" viewBox="0 0 273.67 273.35"><defs><style>.cls-1{fill:#8cbbd9;}.cls-2{fill:#407364;}</style></defs><rect class="cls-2" width="273.67" height="273.35" rx="24.45" ry="24.45"/><g><path class="cls-1" d="M115.97,213.03c0-4.69-.02-9.39,0-14.08,.14-23.61,.28-47.22,.44-70.82,.07-9.33,8.06-17.59,17.79-18.43,10.48-.91,19.43,5.12,21.55,14.63,.34,1.54,.33,3.16,.33,4.75-.02,11.35-.08,22.71-.13,34.06,0,.68,0,1.37,0,2.31,5.08-1.8,9.98-1.85,14.85-.15,4.9,1.71,8.47,4.84,11.01,9.18,5.12-2.31,10.38-3.2,15.88-1.6,5.42,1.57,9.34,4.82,12.11,9.54,.62-.24,1.22-.45,1.8-.7,13.37-5.56,28.19,3.22,28.13,16.79-.07,17.03-.33,34.06-.51,51.09-.04,3.3-2.67,5.88-5.91,5.87-3.23,0-5.77-2.58-5.76-5.98,.08-16.2,.2-32.4,.29-48.6,0-.96,0-1.94-.17-2.89-.69-3.9-4.38-6.67-8.36-6.35-4.33,.35-7.47,3.42-7.54,7.42-.04,2.49,0,4.98-.01,7.48-.02,3.66-2.49,6.23-5.96,6.24-3.42,0-5.71-2.44-5.72-6.13,0-4.92,.01-9.83,0-14.75-.02-4.81-3.4-8.26-8.07-8.27-4.68,0-8.08,3.44-8.11,8.23-.01,2.42,.03,4.85-.01,7.27-.05,3.2-2.6,5.66-5.83,5.68-3.24,.03-5.8-2.39-5.83-5.65-.05-5.26,0-10.52-.02-15.79-.01-4.48-3.39-7.87-7.9-7.96-4.36-.09-8.08,3.39-8.19,7.75-.07,2.49,0,4.98-.02,7.48-.04,3.69-2.53,6.28-5.95,6.25-3.27-.03-5.78-2.67-5.76-6.23,.06-14.61,.17-29.22,.26-43.82,.04-6.02,.12-12.05,.09-18.07-.02-3.62-3.88-7.52-7.63-7.88-4.09-.39-7.78,1.94-8.77,5.64-.24,.92-.23,1.92-.23,2.88-.17,29.84-.33,59.68-.5,89.52-.03,5.25-3.12,8.63-8.52,9.29-2.97,.37-5.4-.72-7.47-2.63-5.03-4.66-10.05-9.32-15.11-13.95-2.81-2.57-6.59-3.08-9.89-1.42-3.28,1.65-4.96,5-3.87,8.47,.46,1.46,1.51,2.85,2.57,4.05,6.55,7.39,13.19,14.71,19.78,22.08,1.73,1.94,2.02,4.44,.79,6.38-1.27,2-3.26,3.01-5.66,2.53-1.43-.28-3.02-1.06-3.96-2.07-7.18-7.71-14.35-15.45-21.27-23.36-6.97-7.96-5.71-18.88,2.65-25.73,7.75-6.35,19.65-5.93,27.3,1.01,3.52,3.19,6.96,6.45,10.44,9.68,.2-.08,.4-.16,.6-.24Z"/><path class="cls-1" d="M202.55,122.19c4.57,0,9.14-.03,13.71,.02,1.26,.01,1.94-.27,2.5-1.46,4.03-8.58,13.32-12.77,22.55-10.28,9.22,2.5,15.45,11.39,14.02,20.01-1.51,9.05-9.99,15.74-19.83,15.26-7.87-.38-13.45-4.21-16.67-10.84-.59-1.21-1.23-1.61-2.63-1.6-8.99,.06-17.98,.03-26.97,.03-4.11,0-6.98-2.25-7.04-5.48-.06-3.29,2.89-5.64,7.11-5.65,4.42-.01,8.84,0,13.26,0Zm41.19,5.4c0-3.76-3.56-7.07-7.56-7.01-3.97,.06-7.35,3.25-7.36,6.94,0,3.78,3.52,7.02,7.57,6.95,4.16-.07,7.34-3.06,7.34-6.88Z"/><path class="cls-1" d="M130.71,66.89c0-4.29-.04-8.58,.03-12.87,.02-1.21-.39-1.79-1.63-2.3-8.86-3.64-13.03-11.52-10.87-20.27,2.03-8.21,10.09-13.76,19.73-13.58,8.51,.16,16.31,6.53,17.92,14.64,1.55,7.83-3.11,15.8-11.31,19.05-1.57,.62-2.03,1.37-2.02,2.91,.08,8.51,.07,17.02,0,25.54-.02,2.87-2.13,4.97-5.15,5.44-2.49,.39-5.31-1.11-6.25-3.47-.35-.88-.44-1.89-.45-2.84-.05-4.08-.02-8.17-.02-12.25Zm6.01-38.24c-3.98-.02-7.48,3.12-7.58,6.8-.09,3.62,3.38,6.92,7.36,6.97,4.13,.06,7.69-3.12,7.69-6.87,0-3.65-3.5-6.88-7.47-6.9Z"/><path class="cls-1" d="M207.12,44.78c11.32,.01,19.72,8.5,19.08,19.29-.57,9.57-10.51,17.14-21.16,16.05-1.54-.16-3.13-.51-4.52-1.12-1.68-.73-2.65-.28-3.84,.85-6.24,5.87-12.57,11.67-18.88,17.48-2.79,2.57-6.19,2.81-8.52,.63-2.65-2.47-2.62-5.64,.18-8.27,6.35-5.97,12.71-11.93,19.14-17.83,1.08-.99,1.21-1.75,.66-3.04-4.98-11.53,4.36-24.06,17.86-24.04Zm-7.49,17.68c0,3.7,3.4,6.89,7.39,6.93,4.13,.04,7.55-3.14,7.52-6.99-.03-3.76-3.38-6.8-7.47-6.78-4.06,.01-7.43,3.11-7.44,6.84Z"/><path class="cls-1" d="M65.46,44.93c13.86,.04,23.2,12.57,18.34,24.02-.6,1.41-.39,2.16,.71,3.17,6.46,5.87,12.83,11.83,19.26,17.73,1.53,1.4,2.46,2.99,2.14,4.99-.33,2.06-1.53,3.67-3.74,4.28-2.37,.65-4.54,.19-6.38-1.52-6.43-5.99-12.94-11.92-19.35-17.94-1.1-1.04-1.95-1.19-3.47-.67-7.5,2.57-14.37,1.26-20.18-3.71-5.66-4.83-7.51-10.94-5.14-17.76,2.4-6.9,7.65-11.03,15.45-12.27,.96-.15,1.92-.25,2.35-.3Zm-6.67,17.57c.01,3.74,3.38,6.86,7.41,6.88,3.97,.01,7.46-3.17,7.5-6.83,.04-3.81-3.4-6.97-7.57-6.94-4.07,.03-7.36,3.11-7.34,6.89Z"/><path class="cls-1" d="M37.52,109.54c7.76,.37,13.6,3.96,16.96,10.83,.62,1.27,1.29,1.71,2.8,1.7,9.21-.07,18.43-.03,27.64-.03,2.68,0,4.59,1.14,5.69,3.36,1,2.02,.63,3.98-.92,5.61-1.3,1.36-2.81,2.52-5.07,1.61-.51-.2-1.18-.09-1.78-.09-8.46,0-16.93,.02-25.39-.03-1.51,0-2.33,.29-2.99,1.73-3.66,8.06-12.42,12.19-21.58,10.35-8.98-1.81-15.12-9.19-14.97-18.01,.13-8.04,6.97-15.3,15.83-16.77,1.1-.18,2.24-.16,3.78-.26Zm6.99,18.09c.02-3.74-3.3-6.94-7.3-7.04-4-.1-7.63,3.23-7.61,6.99,.02,3.67,3.5,6.89,7.47,6.91,4.08,.02,7.42-3.06,7.44-6.86Z"/></g></svg>