<?xml version="1.0" encoding="UTF-8"?><svg id="Layer_1" xmlns="http://www.w3.org/2000/svg" viewBox="0 0 273.67 273.35"><defs><style>.cls-1{fill:#8cadd9;}.cls-2{fill:#a4dded;}</style></defs><rect class="cls-1" width="273.67" height="273.35" rx="24.45" ry="24.45"/><g><path class="cls-2" d="M138.04,207.7c4.75,6.62,9.16,12.76,13.57,18.89,3.89,5.4,7.81,10.77,11.63,16.24,.56,.8,1.1,2.45,.78,3.1-.41,.83-1.7,1.44-2.61,1.44-16.48,.08-32.96,.08-49.44,0-.85,0-2.16-.61-2.43-1.35-.28-.78,.23-2.28,.78-3.09,7.48-11,15.04-21.93,22.57-32.88,.35-.52,.69-1.05,1.31-2.01h-2.43c-33.08,0-66.17,0-99.25,0-.63,0-1.26,.03-1.89,0-2.6-.15-4.57-2.53-4.56-5.47,.01-2.99,1.91-5.31,4.6-5.34,6.42-.07,12.83-.03,19.25-.03,.68,0,1.36,0,1.93,0v-51.08c-1.6-.16-3.03-.3-4.45-.45-3.43-.37-5.38-3.66-4.38-7.58,2.68-10.58,5.44-21.14,8.11-31.72,.35-1.4,.48-2.92,.5-4.39,.06-4.75,.02-9.5,.02-14.25-.24-.02-.48-.05-.72-.07-.5,2.04-1.04,4.07-1.51,6.13-1.66,7.2-3.29,14.41-4.94,21.62-.59,2.58-2.13,4.15-3.98,4.01-1.79-.13-2.9-1.37-3.31-3.39-.14-.69-.06-1.49,.08-2.19,2.68-13.45,5.23-26.93,8.17-40.29,.8-3.65,2.61-7.08,4.32-10.33,.81-1.53,2.42-2.53,3.79-3.55,1.22-.92,2.45-.84,3.88-.01,4.99,2.87,10.03,2.75,15.09,0,.85-.46,2.09-.57,2.96-.2,2.93,1.23,5.12,3.82,6.26,7.1,1.69,4.87,3.09,9.92,4.2,15.02,2.26,10.41,4.25,20.91,6.3,31.38,.23,1.2,.34,2.6,.04,3.73-.52,1.99-1.92,2.9-3.68,2.8-1.82-.11-2.81-1.45-3.26-3.44-1.39-6.05-2.76-12.11-4.17-18.15-.76-3.22-1.59-6.42-2.67-9.65-.12,3.12-.18,6.25-.37,9.37-.3,4.84,.34,9.46,1.63,14.08,2.39,8.57,4.5,17.26,6.71,25.91,1.26,4.92-.8,8.3-5.1,8.45-1.12,.04-2.24,.13-3.46,.21v50.99h116.67V121.29c-2.68-1.8-2.65-1.92-2.32-5.72,.75-8.71,1.43-17.43,2.12-26.15,.05-.58,0-1.17-.26-1.79-1.18,6.01-2.36,12.01-3.54,18.02-.65,3.35-1.28,6.7-1.93,10.05-.58,2.93-2.45,4.63-4.58,4.17-2.35-.51-3.72-2.75-3.24-5.81,2.26-14.47,4.41-28.97,6.98-43.37,1.13-6.3,4.68-10.81,9.75-13.42,.98-.51,1.78-.48,2.79,.18,5.47,3.62,11.03,3.67,16.51,.03,1.07-.71,1.92-.69,2.96-.15,5.49,2.85,8.82,7.84,9.96,14.76,2.28,13.86,4.42,27.75,6.63,41.63,.46,2.92-.93,5.61-3.2,6.15-2.03,.48-3.93-1.15-4.49-3.96-1.91-9.51-3.78-19.02-5.96-28.48,.41,5.2,.82,10.4,1.23,15.59,.4,4.99,.86,9.98,1.17,14.98,.05,.74-.44,2.06-.89,2.2-1.52,.48-1.28,1.74-1.28,2.98,0,22.78,.01,45.55-.02,68.33,0,1.84-.26,3.68-.43,5.86,.49,0,1.14,0,1.79,0,5.91,0,11.82-.01,17.74,.01,.74,0,1.51,.07,2.23,.31,2.2,.73,3.48,2.85,3.28,5.28-.21,2.52-1.93,4.49-4.14,4.69-.75,.07-1.51,.05-2.26,.05-33.46,0-66.92,0-100.39,0-.74,0-1.48,0-2.75,0Zm74.34-10.05c-.82-23.71-1.63-47.2-2.44-70.77-.68-.04-1.11-.1-1.54-.09-.48,.02-.96,.1-1.53,.16-.89,23.63-1.77,47.14-2.65,70.7h8.16ZM61.94,146.93c-.56,17-1.11,33.79-1.67,50.7h8.46c-.56-16.92-1.12-33.78-1.67-50.7h-5.12Z"/><path class="cls-2" d="M220.85,40.91c.03,8.45-5.54,15.18-12.58,15.2-7.11,.02-12.74-6.6-12.75-15-.02-8.49,5.49-15.14,12.58-15.19,7.1-.05,12.72,6.55,12.75,14.99Z"/><path class="cls-2" d="M77.05,42.32c.01,8.45-5.57,15.13-12.64,15.14-7.09,0-12.69-6.64-12.7-15.06,0-8.46,5.55-15.11,12.64-15.13,7.1-.02,12.69,6.61,12.7,15.05Z"/></g></svg>