<?xml version="1.0" encoding="UTF-8"?><svg id="Layer_1" xmlns="http://www.w3.org/2000/svg" viewBox="0 0 273.67 273.35"><defs><style>.cls-1{fill:#9bc2be;}.cls-2{fill:#f37979;}</style></defs><rect class="cls-2" width="273.67" height="273.35" rx="24.45" ry="24.45"/><g><path class="cls-1" d="M159.38,136.34c0,1.01,0,1.67,0,2.32,.11,21.19,.23,42.38,.29,63.56,0,1.73,.49,2.26,2.33,2.64,4.29,.89,8.68,1.79,12.65,3.51,8.04,3.5,12.71,10.96,12.09,20.02-.33,4.88-1.84,9.29-4.25,13.56-4.56,8.09-17.13,9.91-22.58,.07-3.31-5.98-4.71-12.45-5.51-19.09-.5-4.18-.78-8.38-1.19-12.97H76.5c0,1.86-.11,3.98,.02,6.09,.66,10.59-2.19,15.39-14.59,19.65-3.65,1.25-7.73,1.47-11.65,1.78-3.56,.29-7.16,.09-10.74,.05-2.64-.03-3.91-1.24-3.96-3.83-.06-3.03-.01-6.06-.01-9.43-2.39,0-4.64,.02-6.9,0-2.49-.02-4.06-1.32-4-3.27,.05-1.75,1.69-3.04,4.02-3.08,2.19-.04,4.39,0,6.73,0v-20.28c-2.15,0-4.33,.01-6.5,0-2.53-.02-4.2-1.24-4.24-3.06-.04-1.96,1.6-3.17,4.33-3.18,2.11,0,4.23,0,6.57,0,0-3.03-.02-5.82,0-8.62,.03-3.03,1.11-4.32,4.22-4.25,6.67,.15,13.43,.05,19.98,1.06,3.79,.58,7.48,2.8,10.82,4.88,4.18,2.61,5.97,6.77,5.92,11.63-.02,2.35,0,4.7,0,7.37h76.35v-65.09c-1.23,.64-2.2,1-3,1.58-11.74,8.55-25.03,14.2-38.54,19.42-10.56,4.08-21.35,7.47-32.69,8.6-4.08,.4-8.35-.04-12.41-.75-4.51-.8-6.91-4.82-5.29-8.9,1.05-2.63,3.04-5.03,5.03-7.15,2.19-2.33,4.75-4.39,7.37-6.28,13.51-9.74,28.7-16.28,44.47-21.59,7.87-2.65,15.95-4.71,24.31-7.14-.39-1.57-.88-3.62-1.4-5.66-3.29-12.9-3.97-26.04-3.52-39.24,.37-11.11,1.48-22.17,4.95-32.83,1.07-3.27,2.52-6.55,4.45-9.41,4-5.94,10.43-5.86,14.53,.01,3.03,4.34,4.42,9.32,5.79,14.36,4.73,17.44,4.37,35.11,2.89,52.84-.3,3.6-.99,7.18-1.71,10.73-.46,2.27-1.3,4.47-1.95,6.61,5.27,1.5,10.39,2.81,15.41,4.41,12.33,3.9,23.89,9.48,35.25,15.53,8.66,4.61,16.61,10.13,23.87,16.55,2.6,2.3,4.89,5.14,6.64,8.12,3.73,6.34,.27,11.89-7.29,12.28-6.32,.32-12.39-.99-18.45-2.53-12.36-3.15-23.85-8.3-35.1-14.09-9.51-4.89-18.35-10.68-27.07-17.49Zm4.22-61.12c.11-9.65-.7-21.17-3.77-32.4-.96-3.53-2.5-6.95-4.15-10.25-1.01-2.01-2.29-1.9-3.55,.04-1.12,1.71-2.28,3.47-2.97,5.36-1.07,2.99-1.89,6.08-2.59,9.18-2.87,12.83-3.25,25.86-2.65,38.9,.5,10.95,1.95,21.8,5.88,32.19,.74,1.96-.29,3.71-2.44,4.17-1.56,.33-3.16,.43-4.74,.7-17.03,2.89-32.8,9.24-48.11,16.74-7.95,3.89-15.69,8.21-22.27,14.15-1.49,1.35-2.88,2.88-4.01,4.52-1.39,2.01-.94,2.8,1.53,3.36,.66,.15,1.37,.25,2.04,.19,4.01-.36,8.07-.48,12-1.22,12.06-2.27,23.53-6.42,34.77-11.14,4.95-2.08,9.69-4.63,14.53-6.95,7.9-3.79,14.78-9,21.3-14.68,2.27-1.98,3.44-2.02,5.82-.05,4.85,4.01,9.63,8.15,14.8,11.75,10.06,7,21.16,12.24,32.62,16.65,6.96,2.69,14.2,4.76,21.44,6.69,3.32,.89,6.92,.98,10.4,1.07,2.81,.07,3.5-1.07,1.89-3.22-1.98-2.64-4.28-5.13-6.76-7.34-10.14-9.04-22.1-15.32-34.33-21.23-12.33-5.95-24.99-10.78-38.73-12.58-2.58-.34-3.53-1.89-2.81-4.27,3.8-12.54,4.95-25.4,4.88-40.33ZM42.25,231.04c2.69,0,5.11-.08,7.54,.02,5.79,.22,11.16-1.07,16.07-4.06,2.45-1.49,4-3.48,3.97-6.52-.08-8.29,.07-16.58-.11-24.86-.04-1.64-.81-3.47-1.81-4.81-.92-1.23-2.56-2-3.97-2.83-6.78-3.98-14.24-3.31-21.68-3.2v46.27Zm117.65-20.34c.3,3.99,.41,7.52,.86,11.02,.73,5.71,1.87,11.32,4.41,16.62,2.15,4.49,8.42,5.71,11.48,.32,1.29-2.28,2.14-4.9,2.67-7.46,1.85-9.05-1.84-15.52-10.43-18.36-2.78-.92-5.72-1.38-8.99-2.14Z"/><path class="cls-1" d="M221.07,63.67c-1.02,1.15-1.6,2.27-2.52,2.75-1.58,.82-3.26,.65-4.49-.89-1.39-1.76-2.72-3.57-4.16-5.29-6.6-7.84-14.78-13.86-23.89-18.58-5.2-2.69-10.88-4.49-16.32-6.76-1.06-.44-2.34-.99-2.87-1.86-.46-.76-.39-2.34,.15-3.04,1.05-1.35,2.77-1.76,4.52-1.14,3.64,1.29,7.31,2.51,10.87,3.97,14.09,5.76,25.96,14.35,35.1,26.35,1.09,1.43,2.24,2.8,3.6,4.48Z"/><path class="cls-1" d="M57.4,136.92c.17-12.75,2.1-23.85,7.03-34.29,1.79-3.79,4.1-7.36,6.27-10.97,1.02-1.7,3.02-2.2,4.53-1.37,1.58,.87,2.14,2.86,1.04,4.64-4.9,7.93-8.02,16.47-10.36,25.44-2.11,8.12-1.87,16.2-1.49,24.37,.01,.29,.1,.58,.14,.88,.26,2.26-.94,3.95-3,4.21-1.58,.2-3.03-1.1-3.49-3.15-.07-.29-.11-.58-.13-.88-.21-3.4-.42-6.8-.55-8.89Z"/><path class="cls-1" d="M182.41,205.02c-1.89-.5-2.93-1.52-3.13-3.16-.23-1.84,.6-3.23,2.57-3.61,2.9-.56,5.86-.88,8.75-1.52,9.26-2.06,18.07-5.3,25.82-10.72,5.04-3.53,9.83-7.4,14.58-11.3,1.71-1.41,3.34-1.73,5.19-.82,1.96,.96,2.03,3.38,.19,5.04-11.03,9.96-23.15,18.2-37.85,22.23-5.32,1.46-10.74,2.58-16.12,3.85Z"/><path class="cls-1" d="M77.45,130.85c.06-5.4,1.32-10.54,3.54-15.48,.97-2.17,3.38-3.31,5.32-2.56,1.85,.71,2.4,2.77,1.25,5.15-2.41,4.99-3.45,10.24-3.19,15.73,.1,2.17-.92,3.32-3.04,3.7-1.99,.36-3.68-.8-3.85-2.77-.11-1.25-.02-2.51-.02-3.77Z"/><path class="cls-1" d="M194.2,64.48c-.82,.99-1.41,2.39-2.26,2.56-1.23,.25-2.85-.07-3.93-.72-1.7-1.04-2.96-2.75-4.63-3.84-3.2-2.08-6.5-4.05-9.9-5.83-2.38-1.25-3.37-2.7-2.52-4.69,.78-1.85,2.77-2.37,5.23-1.27,5.97,2.68,11.63,5.81,16,10.74,.71,.8,1.19,1.79,2.01,3.06Z"/><path class="cls-1" d="M215.64,169.94c-.73,1.1-1.13,2.1-1.85,2.73-5.32,4.6-11.59,7.47-18.42,9.24-2.19,.57-3.67-.29-4.22-2.25-.51-1.82,.41-3.35,2.59-3.96,5.89-1.65,11.38-3.97,16.06-7.97,.78-.66,2.59-.64,3.73-.3,.83,.25,1.33,1.53,2.11,2.51Z"/><path class="cls-1" d="M64.22,209.59c0,2,.02,3.99,0,5.98-.05,4.74-3.75,9.09-8.51,9.92-1.72,.3-3.18-.15-3.87-1.93-.71-1.85-.04-3.49,1.69-4.02,3.7-1.14,4.28-3.58,4.05-6.86-.22-3.16-.07-6.35-.04-9.53,.03-2.64,1.29-4.16,3.37-4.18,2.04-.02,3.29,1.55,3.31,4.19,.02,2.14,0,4.29,0,6.43Z"/></g></svg>