<?xml version="1.0" encoding="UTF-8"?><svg id="Layer_1" xmlns="http://www.w3.org/2000/svg" viewBox="0 0 25 25"><defs><style>.cls-1{fill:#9ac1bd;}.cls-2{fill:#f08d21;}</style></defs><rect class="cls-2" x="0" y="0" width="25" height="25" rx="3.12" ry="3.12"/><g><path class="cls-1" d="M5.36,20.6c-.11,0-.19,0-.27,0-.68,0-1.36,0-2.04,0-.44,0-.64-.29-.5-.71,.94-2.81,1.87-5.62,2.81-8.43,.09-.28,.23-.38,.53-.38,4.4,0,8.81,0,13.21,0,.29,0,.44,.1,.53,.38,.94,2.82,1.88,5.64,2.82,8.45,.13,.39-.07,.68-.48,.69-.69,0-1.37,0-2.06,0-.08,0-.16,0-.27,0,0,.09,0,.16,0,.23,0,.39,0,.78,0,1.16,0,.32-.19,.5-.51,.51-.03,0-.07,0-.1,0-4.35,0-8.7,0-13.05,0-.46,0-.61-.15-.61-.6,0-.42,0-.84,0-1.3Zm13.31,.02H6.34v.91h12.34v-.91Zm-5.68-.98h4.11c-.16-.58-.32-1.15-.47-1.72-.04-.14-.09-.18-.24-.18-1.07,0-2.15,0-3.22,0-.06,0-.12,0-.18,.01v1.88Zm-.99-1.89h-.25c-.97,0-1.94,0-2.91,0q-.42,0-.53,.4c-.14,.49-.27,.99-.41,1.48h4.1v-1.89Zm6.09,1.9h3.25c-.02-.07-.04-.13-.06-.2-.17-.5-.34-1-.5-1.5-.05-.15-.11-.2-.27-.2-.91,0-1.82,0-2.73,0-.06,0-.13,0-.21,.01,.18,.64,.35,1.25,.52,1.88Zm-14.44,0h3.25c.17-.63,.34-1.24,.52-1.89h-.26c-.83,0-1.66,0-2.48,0q-.4,0-.53,.39c-.17,.5-.33,1-.5,1.5Zm8.35-2.85v-1.89c-.08,0-.15,0-.23,0-.69,0-1.39,0-2.08,0q-.49,0-.62,.47c-.13,.47-.26,.94-.39,1.42h3.31Zm.99,0h3.32c-.17-.61-.33-1.2-.51-1.79-.01-.05-.12-.09-.19-.09-.82,0-1.64,0-2.47,0-.05,0-.1,.01-.16,.02v1.87Zm-8.39,.01c1.02,0,2,0,2.98,0,.05,0,.13-.08,.14-.14,.1-.33,.19-.66,.28-1,.07-.24,.13-.49,.2-.75-.98,0-1.93,0-2.88,0-.05,0-.12,.05-.13,.09-.2,.59-.4,1.18-.6,1.81Zm12.18-1.9c.17,.6,.33,1.17,.48,1.74,.03,.13,.09,.17,.22,.17,.79,0,1.57,0,2.36,0,.18,0,.35,0,.55,0-.02-.07-.03-.12-.05-.17-.17-.52-.35-1.04-.51-1.56-.04-.14-.11-.17-.25-.17-.56,0-1.13,0-1.69,0-.36,0-.72,0-1.11,0Zm-11.22-.97h2.93c.17-.62,.34-1.25,.52-1.89-.94,0-1.84,0-2.74,0-.04,0-.1,.05-.11,.08-.2,.59-.4,1.19-.6,1.8Zm13.89,0c-.2-.61-.4-1.21-.6-1.79-.02-.05-.12-.1-.18-.1-.83,0-1.67,0-2.5,0-.05,0-.1,.01-.17,.02,.18,.64,.35,1.25,.52,1.87h2.93Zm-3.93,0c-.17-.61-.33-1.2-.5-1.78-.02-.05-.13-.11-.19-.11-.52,0-1.03,0-1.55,0-.09,0-.19,0-.28,0v1.9h2.52Zm-3.51-1.9c-.54,0-1.07,0-1.59,0-.41,0-.41,0-.52,.39-.14,.5-.27,1-.41,1.5h2.52v-1.89Z"/><path class="cls-1" d="M12.79,6.31c1.88,.11,3.49,1.09,4.46,3.06,.14,.29,.08,.54-.14,.68-.26,.17-.57,.07-.72-.25-.34-.75-.85-1.35-1.53-1.81-2.15-1.44-5.08-.64-6.21,1.69-.03,.05-.05,.11-.08,.17-.13,.25-.39,.35-.63,.24-.24-.11-.37-.39-.24-.63,.24-.44,.48-.89,.79-1.27,.96-1.19,2.47-1.87,4.29-1.87Z"/><path class="cls-1" d="M12.02,3.91c0-.3,0-.6,0-.9,0-.31,.2-.52,.48-.52,.28,0,.48,.2,.49,.51,0,.61,0,1.22,0,1.83,0,.31-.2,.52-.48,.52-.28,0-.48-.21-.48-.51,0-.31,0-.62,0-.94Z"/><path class="cls-1" d="M5.14,6.79s.14,.04,.22,.09c.52,.3,1.05,.6,1.57,.9,.28,.16,.37,.44,.22,.69-.14,.24-.42,.3-.69,.15-.54-.31-1.08-.62-1.62-.94-.21-.12-.29-.33-.23-.54,.06-.22,.24-.35,.53-.35Z"/><path class="cls-1" d="M18.29,8.71c-.24,0-.42-.14-.48-.33-.07-.2,0-.43,.18-.54,.58-.34,1.16-.68,1.74-1.01,.22-.12,.49-.02,.61,.2,.12,.21,.08,.49-.13,.61-.58,.35-1.17,.68-1.76,1.02-.06,.03-.13,.04-.16,.04Z"/><path class="cls-1" d="M8.17,3.65c.23,0,.37,.08,.46,.24,.32,.55,.64,1.1,.96,1.66,.14,.24,.06,.52-.17,.66-.22,.13-.51,.07-.66-.17-.33-.55-.65-1.11-.96-1.67-.18-.33,.04-.71,.37-.71Z"/><path class="cls-1" d="M15.86,6.31c-.38-.04-.63-.4-.46-.71,.32-.59,.66-1.17,1-1.74,.13-.22,.41-.27,.63-.14,.22,.13,.31,.39,.19,.62-.32,.58-.65,1.16-1,1.72-.07,.12-.24,.17-.36,.26Z"/></g></svg>