<svg id="Layer_1" data-name="Layer 1" xmlns="http://www.w3.org/2000/svg" viewBox="0 0 273.67 273.35"><defs><style>.cls-1{fill:#f18e21;}.cls-2,.cls-3{fill:#9bc2be;}.cls-3{font-size:25px;font-family:Roboto-Bold, Roboto;font-weight:700;}.cls-4{letter-spacing:-0.01em;}</style></defs><rect class="cls-1" width="273.67" height="273.35" rx="24.45"/><path class="cls-2" d="M46.5,175,94,147.4c-1.08-1.31-1.81-2.2-2.53-3.09-6.33-7.83-9.18-16.75-10-26.32a83.82,83.82,0,0,1,6.44-39.45c8.07-19.31,23.22-32,44.67-38.2C144.2,37,156.14,34.61,168,32c11-2.46,21.91-5.07,32.09-9.71a67.21,67.21,0,0,0,15.47-9.51c.4-.33.84-.62,1.39-1a73.8,73.8,0,0,1,6.81,17.81c3,12.17,3.33,24.47,2.11,36.85a217.71,217.71,0,0,1-10,48c-7.09,21.11-23.19,34.85-44.51,44.13a80.11,80.11,0,0,1-30.14,6.73,65.41,65.41,0,0,1-40.29-11.94,211.62,211.62,0,0,0-33.66,38.4ZM127,150.74a18.81,18.81,0,0,0,12.36-4.38c2.93-2.26,5.43-5,8.55-7,6.66-4.27,13.55-8.25,20.42-12.22,5.81-3.36,11.54-6.75,16.09-11.56,8.24-8.72,9.86-18.21,4.31-27.44a60.75,60.75,0,0,0-20-20.11c-5.34-3.39-10.83-2-14.61.77a15.27,15.27,0,0,0-6.17,11c-.67,5.26-.86,10.57-1.29,15.85-.63,7.89-4.47,13.9-12.51,17.38-2.59,1.12-5.3,2-7.87,3.22-3.53,1.61-7.25,3.06-10.42,5.16a15.29,15.29,0,0,0-6,18.59C112.28,146.52,119,150.73,127,150.74ZM182.54,47a8.19,8.19,0,0,0-4.28-7.83c-2.64-1.43-4.81-.15-6.85,1.06-6.51,3.87-10.29,9.26-10.27,16.47,0,2.42.8,4.81,3.45,6s5,.17,7.09-1.24a27.75,27.75,0,0,0,9.54-10.6A22.53,22.53,0,0,0,182.54,47ZM178,65c-.09,3.56,2.87,5.4,6.45,4s7.23-7.22,6.76-10.67c-.3-2.27-1.49-3.08-4-2.76C182.72,56.08,178.06,60.87,178,65Zm20.32,5.53c0-2-1.51-3.89-2.79-3.39-3.65,1.41-6.91,3.36-8.29,7-.5,1.32-.51,3,1,3.69a7,7,0,0,0,4.2.49C195.06,77.62,198.28,73.05,198.28,70.49Zm4.08,11c0-2.09-1.45-3.2-3.39-2.22a26.88,26.88,0,0,0-6.07,4.19c-1.6,1.48-.62,3.45,1.62,3.86C197.42,87.89,202.36,84.22,202.36,81.53Zm-.84,11.23c-.29-.26-.91-1.28-1.66-1.37-2.35-.27-4.48,1.17-4.41,2.66.06,1.2,1.54,2.32,3,2.27C200.22,96.27,201.52,95,201.52,92.76Z" transform="translate(0.22 0.16)"/><text class="cls-3" transform="translate(46.51 219.08)">Ch2. <tspan class="cls-4" x="58.18" y="0">F</tspan><tspan x="71.62" y="0">ootprint </tspan><tspan x="0" y="30">and biocapacity</tspan></text></svg>