<svg id="Layer_1" data-name="Layer 1" xmlns="http://www.w3.org/2000/svg" viewBox="0 0 273.67 273.35"><defs><style>.cls-1{fill:#f18e21;}.cls-2,.cls-3{fill:#9bc2be;}.cls-3{font-size:24.03px;font-family:Roboto-Bold, Roboto;font-weight:700;}.cls-4{letter-spacing:-0.03em;}.cls-5{letter-spacing:-0.01em;}</style></defs><rect class="cls-1" width="273.67" height="273.35" rx="24.45"/><path class="cls-2" d="M134.16,154.05c-9.72-.86-17.89-4.56-24.48-11.49A35,35,0,0,1,99.56,119c-.22-6.89-.09-13.79-.11-20.69,0-.8,0-1.6,0-2.47-.6-.17-1.1-.32-1.61-.45a5.66,5.66,0,0,1-4.65-5.52c-.08-3.62-.1-7.23,0-10.85.09-3.42,2.58-5.68,6.2-5.73s7.07,0,10.84,0V70.69c0-7.36-.08-14.73,0-22.09.09-6.86,6.17-11.27,12.33-9.11a9.3,9.3,0,0,1,6.22,8.94c0,7.43,0,14.86,0,22.29v2.36h15.32V71c0-7.63,0-15.27,0-22.9a9.31,9.31,0,0,1,7.67-9,9.21,9.21,0,0,1,10.45,6.45,14.62,14.62,0,0,1,.44,4c0,7.09,0,14.19,0,21.29v2.45c3.37,0,6.55,0,9.74,0,5.22,0,7.33,2.09,7.33,7.26,0,2.75,0,5.49,0,8.23,0,4-1.44,5.81-5.38,6.78-.25.06-.5.17-.9.3,0,6.55.09,13.1,0,19.65a50.82,50.82,0,0,1-.9,9.55,36.81,36.81,0,0,1-33.09,28.92,3.82,3.82,0,0,0-.53.13v31.17c27.28.38,64.33-17.4,78.11-57A85.35,85.35,0,0,0,73.46,42.52c-27.17,29.69-27.18,70.21-13.1,95.92,3.28-1.06,6.43-2.45,9.73-3.06,10.36-1.91,22,3.29,26.24,13.56A92.62,92.62,0,0,1,101.9,170c.79,5.08,1.31,10.21,1.93,15.31a16.92,16.92,0,0,1,.11,2c0,2-.8,2.91-2.79,2.73-5-.45-10-.75-14.93-1.68-6.8-1.28-13.58-2.82-20.23-4.73-18.79-5.4-22-28.7-10.2-40.71a1.76,1.76,0,0,0,.31-2.43,87.45,87.45,0,0,1-9.44-45.2A88.33,88.33,0,0,1,73.43,36,86.26,86.26,0,0,1,118.38,12c26.85-5.25,51.43.34,73.15,17.06,17.58,13.53,28.8,31.38,33.07,53.15,5.31,27-.51,51.7-17.46,73.46C193.65,173,175.9,183.82,154.4,188.26c-5.52,1.14-11.26,1.32-16.91,1.78-2.6.21-3.32-.64-3.33-3.27q0-15.47,0-30.93ZM104,95.69v1.88c0,6.55,0,13.11,0,19.66a30.11,30.11,0,0,0,.58,5.77c3.66,17.78,19.31,28.7,37.32,26.11,13.54-1.94,25.55-14.11,26.68-27.72.63-7.51.34-15.1.45-22.65,0-1,0-2,0-3Zm-41.33,47.5c1.52,2.3,3,4.48,4.44,6.74a3.12,3.12,0,0,0,3.09,1.64c4-.1,7.89,0,11.84,0,1.5,0,2.55.6,2.63,2.12s-1,2.35-2.57,2.39c-.74,0-1.47,0-2.21,0H72.49c0,.36,0,.52,0,.6.43.51.86,1,1.32,1.51a86.36,86.36,0,0,0,16.06,13.55c2.18,1.42,2.72,2.64,1.81,4s-2.23,1.4-4.36-.2c-4.1-3.09-8.17-6.25-12.11-9.55a56.88,56.88,0,0,1-4.76-5l-.58.34c0,2.24,0,4.48,0,6.72,0,1.53-.48,2.75-2.17,2.78s-2.34-1.16-2.32-2.81c0-3.68,0-7.36,0-11a3.61,3.61,0,0,0-.32-1.91c-1.94-2.92-4-5.78-6.07-8.76-.43.47-.8.84-1.13,1.25-8.17,10.15-5,27.25,9.11,31.83a144.91,144.91,0,0,0,27.61,5.59c1.49.17,3,.27,4.73.43-.63-4.78-1.12-9.23-1.8-13.65a98,98,0,0,0-5.19-20.53C88,140,72.66,136,62.63,143.19ZM136.3,90.92h36.32c2.5,0,2.56-.06,2.57-2.61s0-5.08,0-7.63c0-2.76,0-2.77-2.8-2.77H109c-3,0-6,.07-9,0-1.69-.06-2.24.61-2.19,2.23.08,2.74,0,5.49,0,8.23,0,2.51.08,2.58,2.6,2.58Zm21.64-17.77c.1-.22.21-.33.21-.45,0-8.22.06-16.44,0-24.66a4.37,4.37,0,0,0-3-4.15c-3.22-1.3-6.35.89-6.39,4.61-.08,8,0,15.91,0,23.86a3.83,3.83,0,0,0,.18.79Zm-33.8,0c0-8.61.07-17-.09-25.43a5.3,5.3,0,0,0-1.92-3.28,4,4,0,0,0-4.69-.37,4.63,4.63,0,0,0-2.64,4.38q0,8.93,0,17.85v6.85Z" transform="translate(0.22 0.16)"/><text class="cls-3" transform="translate(33.95 220.78)">Ch4. Global Energy <tspan class="cls-4" x="19.06" y="28.84">T</tspan><tspan class="cls-5" x="33.17" y="28.84">r</tspan><tspan x="41.58" y="28.84">ansformation</tspan></text></svg>