<?xml version="1.0" encoding="UTF-8"?><svg id="Layer_1" xmlns="http://www.w3.org/2000/svg" viewBox="0 0 273.67 273.35"><defs><style>.cls-1,.cls-2{fill:#8cbbd9;}.cls-2{font-family:Roboto-Bold, Roboto;font-size:24.03px;font-weight:700;}.cls-3{fill:#407364;}</style></defs><rect class="cls-3" width="273.67" height="273.35" rx="24.45" ry="24.45"/><g><text class="cls-2" transform="translate(38.47 233.83)"><tspan x="0" y="0">Green Digitalization </tspan><tspan x="68.08" y="28.84">Course</tspan></text><g><path class="cls-1" d="M119.48,171.38c0-3.9-.02-7.8,0-11.7,.12-19.61,.23-39.23,.37-58.84,.05-7.76,6.7-14.61,14.78-15.31,8.71-.75,16.14,4.26,17.9,12.16,.29,1.28,.28,2.63,.27,3.95-.02,9.43-.07,18.87-.1,28.3,0,.57,0,1.14,0,1.92,4.22-1.49,8.29-1.53,12.34-.12,4.07,1.42,7.04,4.02,9.15,7.63,4.25-1.92,8.62-2.66,13.2-1.33,4.51,1.3,7.76,4,10.06,7.92,.52-.2,1.01-.38,1.5-.58,11.11-4.62,23.42,2.67,23.37,13.95-.06,14.15-.27,28.3-.43,42.45-.03,2.74-2.22,4.88-4.91,4.88-2.69,0-4.8-2.15-4.78-4.97,.07-13.46,.17-26.92,.24-40.38,0-.8,0-1.62-.14-2.4-.58-3.24-3.64-5.54-6.95-5.28-3.6,.29-6.21,2.84-6.26,6.16-.03,2.07,0,4.14-.01,6.21-.02,3.04-2.07,5.18-4.95,5.18-2.84,0-4.75-2.03-4.75-5.09,0-4.08,0-8.17,0-12.25-.01-4-2.83-6.86-6.7-6.87-3.89,0-6.71,2.86-6.74,6.84-.01,2.01,.02,4.03,0,6.04-.04,2.66-2.16,4.7-4.84,4.72-2.69,.02-4.82-1.99-4.85-4.69-.04-4.37,0-8.74-.02-13.12-.01-3.72-2.82-6.54-6.56-6.61-3.62-.07-6.71,2.82-6.81,6.44-.06,2.07,0,4.14-.02,6.21-.03,3.06-2.1,5.22-4.95,5.19-2.72-.03-4.8-2.22-4.79-5.17,.05-12.14,.14-24.27,.22-36.41,.03-5,.1-10.01,.07-15.01-.01-3.01-3.22-6.24-6.34-6.54-3.4-.33-6.47,1.61-7.28,4.68-.2,.77-.19,1.59-.19,2.39-.15,24.79-.28,49.58-.42,74.37-.03,4.36-2.59,7.17-7.08,7.72-2.47,.3-4.49-.6-6.21-2.19-4.18-3.87-8.35-7.74-12.56-11.59-2.33-2.14-5.48-2.56-8.22-1.18-2.72,1.37-4.12,4.15-3.21,7.04,.38,1.21,1.25,2.36,2.14,3.36,5.44,6.14,10.96,12.22,16.43,18.34,1.44,1.61,1.68,3.69,.66,5.3-1.05,1.66-2.71,2.5-4.71,2.11-1.19-.24-2.51-.88-3.29-1.72-5.97-6.41-11.92-12.83-17.68-19.41-5.79-6.61-4.75-15.68,2.2-21.38,6.44-5.28,16.33-4.93,22.68,.84,2.92,2.65,5.79,5.36,8.68,8.04,.17-.07,.33-.13,.5-.2Z"/><path class="cls-1" d="M191.42,95.92c3.8,0,7.59-.03,11.39,.02,1.05,.01,1.62-.22,2.08-1.22,3.35-7.13,11.07-10.61,18.73-8.54,7.66,2.07,12.84,9.46,11.65,16.62-1.25,7.52-8.3,13.07-16.48,12.68-6.54-.32-11.18-3.5-13.85-9-.49-1.01-1.02-1.34-2.19-1.33-7.47,.05-14.94,.03-22.41,.02-3.41,0-5.8-1.87-5.85-4.56-.05-2.73,2.4-4.69,5.91-4.7,3.67-.01,7.34,0,11.02,0Zm34.22,4.49c0-3.13-2.96-5.87-6.28-5.82-3.3,.05-6.11,2.7-6.11,5.77,0,3.14,2.93,5.83,6.29,5.77,3.46-.06,6.1-2.54,6.1-5.72Z"/><path class="cls-1" d="M131.73,49.96c0-3.57-.04-7.13,.02-10.69,.02-1-.32-1.49-1.35-1.91-7.36-3.03-10.83-9.57-9.03-16.84,1.69-6.82,8.39-11.43,16.39-11.29,7.07,.13,13.55,5.43,14.89,12.17,1.29,6.5-2.59,13.13-9.39,15.83-1.31,.52-1.69,1.14-1.68,2.42,.07,7.07,.06,14.14,0,21.22-.02,2.39-1.77,4.13-4.28,4.52-2.07,.32-4.41-.92-5.19-2.88-.29-.73-.36-1.57-.37-2.36-.04-3.39-.02-6.78-.02-10.18Zm4.99-31.77c-3.3-.02-6.22,2.6-6.3,5.65-.08,3.01,2.81,5.75,6.11,5.79,3.43,.05,6.39-2.6,6.39-5.71,0-3.03-2.91-5.71-6.2-5.73Z"/><path class="cls-1" d="M195.22,31.59c9.41,0,16.38,7.06,15.85,16.02-.48,7.95-8.73,14.24-17.58,13.33-1.28-.13-2.6-.43-3.75-.93-1.39-.61-2.2-.23-3.19,.7-5.19,4.88-10.44,9.7-15.68,14.53-2.32,2.13-5.14,2.33-7.08,.53-2.2-2.05-2.17-4.68,.15-6.87,5.28-4.96,10.56-9.91,15.9-14.81,.9-.82,1.01-1.46,.55-2.52-4.13-9.58,3.62-19.99,14.84-19.98Zm-6.22,14.69c0,3.07,2.83,5.72,6.14,5.76,3.43,.03,6.27-2.61,6.24-5.81-.02-3.12-2.8-5.65-6.21-5.63-3.38,.01-6.17,2.59-6.18,5.69Z"/><path class="cls-1" d="M77.52,31.72c11.51,.03,19.27,10.45,15.24,19.95-.5,1.17-.33,1.8,.59,2.63,5.36,4.88,10.66,9.83,16,14.73,1.27,1.16,2.05,2.48,1.78,4.14-.27,1.71-1.28,3.05-3.11,3.55-1.97,.54-3.78,.16-5.3-1.26-5.35-4.98-10.75-9.9-16.08-14.9-.92-.86-1.62-.99-2.88-.56-6.23,2.14-11.94,1.05-16.77-3.08-4.7-4.02-6.24-9.09-4.27-14.76,1.99-5.73,6.36-9.16,12.84-10.2,.79-.13,1.6-.21,1.95-.25Zm-5.54,14.6c.01,3.11,2.8,5.7,6.16,5.71,3.3,0,6.2-2.63,6.23-5.68,.03-3.16-2.83-5.79-6.29-5.76-3.38,.02-6.11,2.58-6.1,5.73Z"/><path class="cls-1" d="M54.3,85.4c6.45,.31,11.3,3.29,14.09,9,.52,1.06,1.07,1.42,2.33,1.41,7.65-.06,15.31-.02,22.97-.03,2.23,0,3.82,.95,4.73,2.79,.83,1.68,.52,3.31-.77,4.66-1.08,1.13-2.33,2.09-4.21,1.34-.42-.17-.98-.07-1.48-.07-7.03,0-14.07,.02-21.1-.02-1.25,0-1.94,.24-2.48,1.44-3.04,6.7-10.32,10.13-17.93,8.6-7.46-1.5-12.56-7.63-12.44-14.96,.11-6.68,5.79-12.71,13.15-13.93,.91-.15,1.86-.13,3.14-.22Zm5.81,15.03c.02-3.1-2.74-5.76-6.07-5.85-3.32-.08-6.34,2.69-6.32,5.81,.02,3.05,2.91,5.72,6.21,5.74,3.39,.01,6.16-2.54,6.18-5.7Z"/></g></g></svg>