<svg id="Layer_1" data-name="Layer 1" xmlns="http://www.w3.org/2000/svg" viewBox="0 0 273.67 273.35"><defs><style>.cls-1{fill:#f1b84a;}.cls-2,.cls-3{fill:#9bc2be;}.cls-3{font-size:25.11px;font-family:Roboto-Bold, Roboto;font-weight:700;}.cls-4{letter-spacing:-0.01em;}.cls-5{letter-spacing:-0.01em;}</style></defs><rect class="cls-1" width="273.67" height="273.35" rx="24.45"/><path class="cls-2" d="M76.61,59.83a123.51,123.51,0,0,1,24,37.47A76.45,76.45,0,0,1,104,107.56c1,4.25-1,10.56-8.62,12.23-13.36,2.92-31.8-1.27-37.6-17.31a105.11,105.11,0,0,1-6.44-34.24c-.09-5.48-.16-11-.42-16.43A31.79,31.79,0,0,0,47.12,38.4c-.18-.34-.3-.69-.62-1.42,4.88,1.24,9.45,2.31,14,3.57,15.1,4.24,29.33,10,42,18.46,10.77,7.19,19.84,15.68,25.14,26.7a45,45,0,0,1,3.58,11.57c1.09,6.15-2.22,10.79-8.48,13.38-3.54,1.47-4.38,2.94-3.87,6.33,1.45,9.52,2.23,19.12,3.28,28.68a4.56,4.56,0,0,0,.19.63h13.67c6.44,0,9.64,2.75,9.64,8.33v44.3c0,5.6-3.17,8.37-9.58,8.37H121.88c-5.36,0-8.73-2.88-8.74-7.51,0-15.32,0-30.65,0-46a7.11,7.11,0,0,1,3.77-6.42,2.17,2.17,0,0,0,1-1.58c.74-28.11-8.62-53.28-29.28-75.1-3.67-3.87-7.68-7.5-11.53-11.24Z" transform="translate(0.22 0.16)"/><path class="cls-2" d="M226.5,169.82v29.37c0,5.25-3.28,8.1-9.29,8.11H202.89c-5.48,0-8.82-2.89-8.83-7.6V140c0-4.82,3.3-7.68,8.91-7.7q7.26,0,14.51,0c5.64,0,9,3,9,7.86Q226.52,155,226.5,169.82Z" transform="translate(0.22 0.16)"/><path class="cls-2" d="M148.55,44.74c-3.78,4.55-7.87,8.93-11.25,13.7s-6,9.93-8.88,14.71l-12.3-12.72A46.92,46.92,0,0,1,124.57,50c9.92-9.41,22.27-15.58,35.79-20.17,3.37-1.15,6.83-2.12,10.76-3.32-3.79,7.61-2.76,15.1-2.33,22.55a70.6,70.6,0,0,1-3.43,26.51c-4,12.15-18.2,15.13-27.35,12.84a3.64,3.64,0,0,1-2-1.7c-1.2-2.15-2.25-4.38-3.24-6.61a3.56,3.56,0,0,1-.23-2.2,86,86,0,0,1,15.37-31c.43-.55.85-1.11,1.27-1.66Z" transform="translate(0.22 0.16)"/><path class="cls-2" d="M128.72,139.22c-.81-7.29-1.57-14.35-2.39-21.41-.12-1,.31-1.5,1.16-2.19,3-2.47,6-1.66,9-.18a13,13,0,0,1,7.33,8.83,2.44,2.44,0,0,0,1.43,1.45c4.22,1.37,8.47,2.67,12.75,3.86a3.33,3.33,0,0,0,2.36-.37,16.78,16.78,0,0,1,13.47-2.47,2.94,2.94,0,0,0,2.11-.44q9.68-8.11,19.18-16.35a2.44,2.44,0,0,0,.65-2c-.8-5.14.83-9.48,5.66-12.61A15.61,15.61,0,0,1,217,94.25c5.33,2.41,8,6.45,7.89,11.63-.16,8.1-9.25,14-18.26,12a3,3,0,0,0-3,.69c-6.17,5.33-12.42,10.58-18.58,15.92a2.58,2.58,0,0,0-.84,2.1c1.44,6.82-3.56,13.49-11.34,15s-15.4-2.64-17.35-9.36a2.47,2.47,0,0,0-2-1.92c-4.27-1.24-8.52-2.51-12.75-3.85a2.83,2.83,0,0,0-2.77.38A14.84,14.84,0,0,1,128.72,139.22Z" transform="translate(0.22 0.16)"/><path class="cls-2" d="M186,183.85c0,5.36,0,10.73,0,16.09,0,4.37-3.45,7.33-8.52,7.35s-10.18,0-15.27,0-8.62-3-8.63-7.47q0-16,0-32c0-4.37,3.51-7.4,8.49-7.42q7.74,0,15.46,0c5.06,0,8.45,3,8.47,7.38C186,173.11,186,178.48,186,183.85Z" transform="translate(0.22 0.16)"/><path class="cls-2" d="M105.06,187.43c0,4.19,0,8.39,0,12.58s-3.47,7.23-8.25,7.28q-7.92.06-15.85,0c-4.89,0-8.33-3.11-8.34-7.39q0-12.57,0-25.16c0-4.36,3.5-7.32,8.56-7.33s10.31,0,15.47,0c4.92,0,8.39,3,8.41,7.27S105.06,183.18,105.06,187.43Z" transform="translate(0.22 0.16)"/><path class="cls-2" d="M109.83,128.83c.26,4,.54,7.64.69,11.26,0,.45-.58.95-1,1.38a2.21,2.21,0,0,1-.85.37c-3.17,1-5.11,2.42-6,5.69-2,7.27-11.46,10.86-19.4,8S71.9,144.7,75.68,138.08s13.4-9.14,20.73-5.21a3.45,3.45,0,0,0,3.48.15C103,131.61,106.21,130.34,109.83,128.83Z" transform="translate(0.22 0.16)"/><text class="cls-3" transform="translate(64.04 237.37)">Ch 1. <tspan class="cls-4" x="64.7" y="0">F</tspan><tspan class="cls-5" x="78.14" y="0">r</tspan><tspan x="86.93" y="0">ame</tspan></text></svg>