<svg id="Layer_1" data-name="Layer 1" xmlns="http://www.w3.org/2000/svg" viewBox="0 0 273.67 273.35"><defs><style>.cls-1{fill:#f18e21;}.cls-2{font-size:24.03px;font-family:Roboto-Bold, Roboto;font-weight:700;}.cls-2,.cls-3{fill:#9bc2be;}</style></defs><rect class="cls-1" width="273.67" height="273.35" rx="24.45"/><text class="cls-2" transform="translate(68.2 225.84)">Ch12. SDG5: <tspan x="-16.7" y="28.84">Gender Equality </tspan></text><path class="cls-3" d="M166.67,39.51l25.41-18.77h-1.74c-6.6,0-13.21,0-19.81,0-1.37,0-1.73-.31-1.71-1.3q.1-6.32,0-12.62c0-1.09.49-1.34,1.87-1.34q27.72,0,55.44,0c1.4,0,1.88.29,1.88,1.35q-.06,20.58,0,41.16c0,1-.35,1.35-1.74,1.34q-8.59-.08-17.2,0c-1.4,0-1.74-.39-1.73-1.34,0-4.51,0-9,0-13.53v-1L182.57,51.8c1.44,1.83,3.25,3.93,4.81,6.13a43.38,43.38,0,0,1,8.15,20.31c2,17.53-5.28,32.64-22,45.13-10.94,8.19-24.27,13.24-39.59,15.33-1.11.15-1.41.48-1.4,1.27,0,4.81,0,9.63,0,14.44,0,.93.34,1.23,1.63,1.23,6.71,0,13.42,0,20.12,0,1.36,0,1.89.22,1.87,1.31q-.1,6.76,0,13.53c0,1.09-.48,1.35-1.85,1.34-6.66,0-13.31,0-20,0-1.42,0-1.82.31-1.8,1.35.06,4.7,0,9.4.05,14.1,0,1-.39,1.32-1.74,1.31q-9.3-.06-18.58,0c-1.21,0-1.6-.29-1.59-1.18,0-4.7,0-9.4.05-14.1,0-1.12-.34-1.5-2-1.49-6.6.07-13.2,0-19.81.06-1.5,0-1.89-.34-1.87-1.42.07-4.51.06-9,0-13.54,0-.93.34-1.24,1.64-1.23,6.75,0,13.51,0,20.27,0,1.39,0,1.72-.32,1.7-1.29-.06-4.67-.07-9.33,0-14,0-1-.55-1.26-1.72-1.4-25-3.13-43.54-13-55.62-29.46-5.28-7.19-8.17-15-8.4-23.14C44.38,63,58,45.58,85.46,34.19c12.05-5,25.27-6.89,39-6.33a91.42,91.42,0,0,1,41.4,11.24ZM176,83.73c.31-22.11-24.25-41-54.92-41.24-30.22-.28-56.14,17.7-56.34,40.91-.19,23,24.84,41.54,55.67,41.53C151.8,124.91,176.3,105.73,176,83.73Z" transform="translate(0.22 0.16)"/><path class="cls-3" d="M120.6,79.83c-10.84,0-21.69,0-32.54,0-1.48,0-1.91-.3-1.88-1.4.09-3.44.07-6.89,0-10.34,0-.89.26-1.26,1.59-1.26q32.85,0,65.7,0c1.23,0,1.58.29,1.56,1.17,0,3.56-.06,7.12,0,10.68,0,.92-.4,1.15-1.59,1.15Q137,79.8,120.6,79.83Z" transform="translate(0.22 0.16)"/><path class="cls-3" d="M120.66,101.44c-10.84,0-21.69,0-32.54,0-1.59,0-2-.34-1.94-1.47.1-3.22,0-6.44,0-9.66,0-2-.41-1.85,2.42-1.85h37.92c8.85,0,17.7,0,26.55,0,1.6,0,2,.35,1.94,1.47-.09,3.34,0,6.67,0,10,0,1.51,0,1.51-2.12,1.51Z" transform="translate(0.22 0.16)"/></svg>