<svg id="Layer_1" data-name="Layer 1" xmlns="http://www.w3.org/2000/svg" viewBox="0 0 273.67 273.35"><defs><style>.cls-1{fill:#f18e21;}.cls-2{font-size:24.03px;font-family:Roboto-Bold, Roboto;font-weight:700;}.cls-2,.cls-3{fill:#9bc2be;}</style></defs><rect class="cls-1" width="273.67" height="273.35" rx="24.45"/><text class="cls-2" transform="translate(54.12 240.79)">Ch8. Bioenergy</text><path class="cls-3" d="M118.39,142.47l3.8-4.69c9.94,6.2,15.94,14.87,17.35,26.6h30.55c.4-2,.68-3.9,1.2-5.79a33.13,33.13,0,0,1,13.16-18.67,51.58,51.58,0,0,0,21-31.36c6.47-27.86-12.16-56.46-40.32-61.93C136.41,41.06,109.48,59.18,103.93,88c-.76,4-.79,8-1.17,12.28l-6,.43c.18-3.52.07-6.89.55-10.18,3.08-21.22,14.11-36.88,33.65-45.86a57.61,57.61,0,0,1,80.85,42.5c4.09,23.64-4.19,42.92-23.28,57.36-8.05,6.09-12.33,13.77-12.26,23.88q.09,11.16,0,22.3a8.6,8.6,0,0,1-.8,3.49c-1.7,3.62-3.59,7.15-5.33,10.75a3.75,3.75,0,0,1-3.72,2.31q-11.5,0-23,0a3.57,3.57,0,0,1-3.72-2.29c0-.11-.12-.2-.17-.31-2-4.06-4.71-7.94-5.75-12.22-1-4.12-.22-8.66-.28-13-.07-5.27.15-10.59-.4-15.82-.78-7.51-4.66-13.48-10.62-18.1C121.16,144.49,119.85,143.55,118.39,142.47Zm21.48,45c.6-.18,1.15-.31,1.69-.49l24-8c4.78-1.59,4.77-1.6,4.46-6.64a2.9,2.9,0,0,0-.14-.45c-.54.16-1.09.32-1.63.5l-24,8c-4.88,1.62-4.88,1.62-4.54,6.71A2.18,2.18,0,0,0,139.87,187.5Zm1.77,7.59c1,1.95,1.74,3.67,2.68,5.32a1.88,1.88,0,0,0,1.41.62q9.15.06,18.28,0c.43,0,1.09-.07,1.24-.34,1-1.77,1.87-3.61,2.87-5.61Zm14.82-6.55.06.21H170V184Zm-16.7-13.14L152.89,171l-.09-.36h-13Z" transform="translate(0.22 0.16)"/><path class="cls-3" d="M100,118.72h7.67c3.76,0,4.51.74,4.53,4.42,0,.46,0,.92,0,1.57h9v6.18h-9V203.1c0,3.06-1,4.13-4,4.13-12.66,0-25.33,0-38,0-7.85,0-13.82-4.64-15.55-11.88A15.13,15.13,0,0,1,62,178.6a2.47,2.47,0,0,0,1.41-2.22,15.52,15.52,0,0,0-4.69-14c-3.83-3.73-5.15-8.24-4.59-13.55.35-3.39,0-6.84.08-10.27,0-1-.15-1.53-1.36-1.69a9.1,9.1,0,0,1,.67-18.1c2.2-.14,4.42-.11,6.62-.05a2.19,2.19,0,0,0,2.22-1.23c2.33-4,4.74-8,7.14-11.94,1.24-2.06,2.12-2.41,4.49-1.82l22.76,5.67c2.6.65,3.19,1.42,3.19,4.14Zm6,24.45a42.25,42.25,0,0,0-5.42,0c-5.41.72-9.91-.58-13.18-5.25a2.82,2.82,0,0,0-2.09-.88c-7.78-.06-15.56,0-23.35-.07-1.23,0-1.58.4-1.57,1.6.06,4.7,0,9.41.07,14.11a5.42,5.42,0,0,0,1,2.82c2.22,3.12,4.67,6.09,6.83,9.25a8.37,8.37,0,0,1,1.32,4c.21,2.58.06,5.19.06,7.81,6.23.42,10.87,3.13,13.59,8.56s2,10.75-1.22,15.82h24Zm.08-18.33H55.37c-.41,0-.82,0-1.22,0a3,3,0,0,0,.06,6c.52.05,1,0,1.57,0,8.59,0,17.19.31,25.76-.11,5.28-.26,9.54.76,12.67,5.21a2.11,2.11,0,0,0,1.37.91C99,137,102.4,137,106,137V124.84Zm-36.55,58a9.06,9.06,0,0,0-9.11,9A9.14,9.14,0,1,0,78.6,192,9.06,9.06,0,0,0,69.44,182.85Zm-.56-64.25H93.61c.55-3.52.55-3.52-2.65-4.3l-.85-.2-16.13-4Z" transform="translate(0.22 0.16)"/><path class="cls-3" d="M169.19,92.11l-4.6,4.45c-2.05-2.12-4.2-4.35-6.67-6.89,0,1.14,0,1.87,0,2.6-.15,5.45.19,11-.56,16.33-1.59,11.33-11.82,20.79-23.19,22.06-1.9.21-3.82.22-5.73.31a5.7,5.7,0,0,1-.92-.11V125a64,64,0,0,0,7.5-.72,20.78,20.78,0,0,0,16.57-18.89c.37-5.06.07-10.17.07-15.47-2.24,2.35-4.38,4.59-6.51,6.84l-4.53-4.7c4-4,8.11-8.16,12.25-12.21a2.82,2.82,0,0,1,4.1.09C161.08,84,165.11,88,169.19,92.11Z" transform="translate(0.22 0.16)"/><path class="cls-3" d="M107.43,54l-6.29-6.23,4.12-3.88,6.22,6.23Z" transform="translate(0.22 0.16)"/><path class="cls-3" d="M208.44,47.9l-6.19,6.23-3.9-4.1,6.28-6.25Z" transform="translate(0.22 0.16)"/><path class="cls-3" d="M198.33,144.51l3.76-3.62,6.19,6.18-3.76,3.65Z" transform="translate(0.22 0.16)"/><path class="cls-3" d="M127.53,39.45,124,31l5.66-2.35,3.53,8.47Z" transform="translate(0.22 0.16)"/><path class="cls-3" d="M86.05,72.22c.79-1.93,1.52-3.69,2.34-5.67L96.89,70l-2.35,5.69Z" transform="translate(0.22 0.16)"/><path class="cls-3" d="M215.2,119.05l8.49,3.49-2.34,5.69-8.5-3.52C213.65,122.78,214.4,121,215.2,119.05Z" transform="translate(0.22 0.16)"/><path class="cls-3" d="M185.74,30.92l-3.52,8.49-5.68-2.33c1.16-2.81,2.3-5.56,3.5-8.48Z" transform="translate(0.22 0.16)"/><path class="cls-3" d="M223.7,72.22l-8.48,3.51-2.37-5.65,8.48-3.54Z" transform="translate(0.22 0.16)"/><path class="cls-3" d="M151.91,24.25h5.92v9h-5.92Z" transform="translate(0.22 0.16)"/><path class="cls-3" d="M81.7,94.44h9.08v5.88H81.7Z" transform="translate(0.22 0.16)"/><path class="cls-3" d="M228,100.34h-9v-5.9h9Z" transform="translate(0.22 0.16)"/><path class="cls-3" d="M66.45,191.86a3,3,0,1,1,6,.17,3,3,0,1,1-6-.17Z" transform="translate(0.22 0.16)"/></svg>