<svg id="Layer_1" data-name="Layer 1" xmlns="http://www.w3.org/2000/svg" viewBox="0 0 273.67 273.35"><defs><style>.cls-1{fill:#f18e21;}.cls-2,.cls-3{fill:#9bc2be;}.cls-3{font-size:24.03px;font-family:Roboto-Bold, Roboto;font-weight:700;}.cls-4{letter-spacing:-0.01em;}.cls-5{letter-spacing:-0.02em;}.cls-6{letter-spacing:-0.02em;}</style></defs><rect class="cls-1" width="273.67" height="273.35" rx="24.45"/><path class="cls-2" d="M140,165.25h74.9c3.55,0,4.43.8,4.44,4,0,1.79,0,3.58,0,5.37,0,2.4-1.07,3.37-3.63,3.45H65.51a17.62,17.62,0,0,1-2.3-.09,2.54,2.54,0,0,1-2.49-2.53c-.07-2.5-.06-5,0-7.5a2.8,2.8,0,0,1,2.93-2.7c.59,0,1.18,0,1.77,0Zm73.32,5.58H66.77v1.7h146.5Z" transform="translate(0.22 0.16)"/><path class="cls-2" d="M212.65,110.35v46.92c0,3-.83,3.72-4.1,3.72h-19c-3.2,0-4.06-.79-4.06-3.8V63.84c0-3.46.8-4.18,4.58-4.18h18.63c2.95,0,3.93.9,3.93,3.61Zm-6.08,45.07V65.23h-15v90.19Z" transform="translate(0.22 0.16)"/><path class="cls-2" d="M173.23,119.58v37.8c0,2.78-.89,3.61-3.86,3.61H150.56c-3.79,0-4.5-.66-4.5-4.22V82.32c0-3.54.7-4.19,4.54-4.19,6.27,0,12.54,0,18.81,0,2.91,0,3.81.84,3.82,3.49ZM152.12,83.7v71.72h15V83.7Z" transform="translate(0.22 0.16)"/><path class="cls-2" d="M69.3,35.5a37.06,37.06,0,0,1-2.88-2.84C62,27.18,60.65,21.07,62.66,14.5,64.56,8.27,70.4,4.8,78,5.07c9.82.35,15.75,6.48,15.13,15.66-.41,6.2-2.08,9.55-7.43,14.75,2.61.46,5.14.86,7.65,1.36a25.53,25.53,0,0,1,10,3.94c3.42,2.43,5.33,5.56,5.31,9.63,0,7.6,0,15.21,0,22.81,0,2-1.06,3.23-2.82,3.3a3,3,0,0,1-3.11-3.26c0-7.17-.17-14.34,0-21.5.13-4.18-2-6.69-5.88-8.14-6.18-2.28-12.67-2.93-19.27-3a56.47,56.47,0,0,0-18.79,2.71c-3.07,1-5.79,2.58-6.49,5.88a10.65,10.65,0,0,0-.15,2.11c0,7.38,0,14.77-.08,22.15a3.64,3.64,0,0,1-1.58,2.6,3.65,3.65,0,0,1-2.9-.15,2.8,2.8,0,0,1-1.32-2.12c-.05-8.31-.12-16.62.14-24.92.13-4.2,3-7,6.83-9.14,4.29-2.36,9.11-3.19,14-3.92ZM87.24,19.94c0-5.89-3.12-9.06-9.22-9.42-4.5-.26-8.24,1.53-9.42,5a13.41,13.41,0,0,0,3.19,14.58c3.19,3.3,7.87,3.27,11.26.14C86.12,27.36,87.05,23.77,87.24,19.94Z" transform="translate(0.22 0.16)"/><path class="cls-2" d="M200.85,28.57c-2.48.12-4.95.29-7.43.36-2.25.08-3.62-1-3.62-2.69s1.27-2.68,3.43-2.78c5.2-.24,10.39-.49,15.59-.72,2.94-.13,4.16,1.08,3.75,3.77-.7,4.56-1.44,9.12-2.17,13.67-.06.38-.15.75-.24,1.12a3,3,0,0,1-3.36,2.25,2.75,2.75,0,0,1-2.45-3.1c.33-2.52.76-5,1.19-7.82-3,2.34-5.76,4.53-8.56,6.68-31.28,24-66,42.89-103.65,57.13-7.74,2.92-15.63,5.51-23.47,8.23a5.52,5.52,0,0,1-2.38.41A2.62,2.62,0,0,1,65,102.67c-.14-1.51.8-2.43,2.29-2.93,3.93-1.32,7.88-2.58,11.8-3.95,39.13-13.7,75.37-32.11,108.1-56.19,4.69-3.45,9.25-7.06,13.87-10.59Z" transform="translate(0.22 0.16)"/><path class="cls-2" d="M133.81,129.87q0,13.75,0,27.53c0,2.74-.91,3.59-3.89,3.59H110.4c-2.73,0-3.77-.9-3.78-3.43q0-27.76,0-55.54c0-2.46,1.11-3.49,3.78-3.5q9.84,0,19.69,0c2.7,0,3.72,1,3.72,3.5Q133.82,115.94,133.81,129.87Zm-21.12-25.8v51.3h15v-51.3Z" transform="translate(0.22 0.16)"/><path class="cls-2" d="M94.4,139.62v17.93c0,2.52-1,3.44-3.72,3.44H70.8c-2.48,0-3.6-1-3.61-3.26q0-18.16,0-36.34c0-2.18,1.12-3.2,3.5-3.22q10.11-.06,20.23,0c2.49,0,3.47,1,3.48,3.37Q94.42,130.57,94.4,139.62Zm-6-15.87H73.26v31.63h15.1Z" transform="translate(0.22 0.16)"/><path class="cls-2" d="M95.83,64.77c0,2.87,0,5.75,0,8.62A2.87,2.87,0,0,1,93,76.52a3,3,0,0,1-3.11-3.08q-.06-8.7,0-17.4a2.92,2.92,0,0,1,3-3.12c1.76,0,2.88,1.27,2.89,3.23C95.84,59,95.83,61.9,95.83,64.77Z" transform="translate(0.22 0.16)"/><path class="cls-2" d="M65,64.76c0,2.87,0,5.74,0,8.61a3,3,0,1,1-5.9.09q-.06-8.79,0-17.56A2.95,2.95,0,1,1,65,56C65.05,58.9,65,61.83,65,64.76Z" transform="translate(0.22 0.16)"/><text class="cls-3" transform="translate(69.97 202.67)">Ch3. Human<tspan x="-22.95" y="28.84">D</tspan><tspan class="cls-4" x="-7.33" y="28.84">e</tspan><tspan x="5.5" y="28.84">velopment for </tspan><tspan x="-29.35" y="57.68">the </tspan><tspan class="cls-5" x="11.19" y="57.68">A</tspan><tspan x="26.8" y="57.68">nth</tspan><tspan class="cls-6" x="61.83" y="57.68">r</tspan><tspan x="70.17" y="57.68">opocene</tspan></text></svg>