<svg id="Layer_1" data-name="Layer 1" xmlns="http://www.w3.org/2000/svg" viewBox="0 0 273.67 273.35"><defs><style>.cls-1{fill:#f18e21;}.cls-2{font-size:24.03px;font-family:Roboto-Bold, Roboto;font-weight:700;}.cls-2,.cls-3{fill:#9bc2be;}</style></defs><rect class="cls-1" width="273.67" height="273.35" rx="24.45"/><text class="cls-2" transform="translate(62.89 213.54)">Ch10. Carbon <tspan x="31.1" y="28.84">Capture</tspan></text><path class="cls-3" d="M133.85,136.42V119.63h5.22V91.73H155V80.61h5.34v11h5.23v27.83H176V91.69c1.48,0,2.81-.06,4.13,0,1,.05,1.29-.34,1.28-1.31,0-4.08,0-8.15,0-12.23,0-2.28-1-3.19-3.24-3.21s-4.72,0-7.19,0V69.5a88.4,88.4,0,0,1,9.5.07c3.37.37,6.05,3.76,6.17,7.39.13,4.37.1,8.75,0,13.13,0,1.23.3,1.65,1.59,1.63,3.71-.06,3.72,0,3.72-3.7,0-3.52,0-7,0-10.56-.07-4.5,2.88-8.23,7.54-8.17a12,12,0,0,0,3.85-.62,14,14,0,0,0,9.33-16.56c-1.58-6.46-5.74-10-12.32-10.76l-1-.13c.12-1.14.23-2.22.36-3.3a17.54,17.54,0,0,0-3.95-13.44c-4.51-5.79-14.75-7.48-21.52-1.9a9.67,9.67,0,0,0-1.86,2.12,2,2,0,0,0,0,1.35c.45,2.19,1,4.38,1.46,6.73h-5.57a14.58,14.58,0,0,0-4.92-10.68,12.67,12.67,0,0,0-8-3,13.07,13.07,0,0,0-12.67,9.15C150.42,32,154.77,38,155,47h-5.29a14,14,0,0,0-7.21-12.46A14.7,14.7,0,0,0,136,33a9.56,9.56,0,0,0-6.64,2.31c-1.89,1.54-3.79,3-4.58,5.43s-1.34,4.59-2,7.05c-.72-.13-1.64-.27-2.56-.47-8.22-1.78-13.84,5.93-12.54,12.95a11.65,11.65,0,0,0,11.48,9.12c7.74-.16,15.5,0,23.25,0h1.92v5.48a3.43,3.43,0,0,1-.59.12c-8.4,0-16.81-.08-25.21,0-7,.09-13.39-5-15.52-11.45-.14-.42-.29-.84-.46-1.32-3.83,1.45-6.12,4.24-7.46,8C103,74,107.1,80.15,107.52,89h-5.37a14.54,14.54,0,0,0-5.91-11.73A10.41,10.41,0,0,0,89.48,75c-9.62.23-13,6.5-14,14.58a39.77,39.77,0,0,0-6.66-.28c-6.7.81-9.84,7.79-8.55,13.55,1,4.44,6.2,8.64,11.34,8.59,14.85-.14,29.69,0,44.54,0H118v5.66h-1.69c-14.69,0-29.39,0-44.08,0a18.15,18.15,0,0,1-5.94-.8c-6.86-2.45-11.6-8.11-11.64-16,0-8.12,5-14.74,12.55-16.42,1.27-.29,2.59-.34,4-.51a22.37,22.37,0,0,1,6.27-9.62A16.84,16.84,0,0,1,88.63,69.4c.88,0,1.19-.36,1.46-1.12a18.15,18.15,0,0,1,11.25-11.74,2.36,2.36,0,0,0,1-1.54c1.59-6.57,5.08-11.38,11.93-13.17a6.08,6.08,0,0,1,2.07-.35c1.88.23,2.57-.65,3.23-2.34a18.76,18.76,0,0,1,8-9.3,17.11,17.11,0,0,1,8.49-2.54A1.61,1.61,0,0,0,137.75,26c2.51-6.61,7-11,14.16-12.27A17.69,17.69,0,0,1,167.06,18a23.93,23.93,0,0,1,2.09,2.41,15.36,15.36,0,0,1,2-2.45c7.4-5.94,18.54-6.07,25.84,0a22.38,22.38,0,0,1,8.24,17.23,1.83,1.83,0,0,0,1.36,1.94c7.14,3,11,8.64,11.68,16.18.76,8-2.33,14.22-9.13,18.69a17.86,17.86,0,0,1-9,2.91c-2.41.16-2.87.62-2.87,3,0,4.13,0,8.25,0,12.38,0,1,.29,1.44,1.36,1.38,1.25-.08,2.51,0,3.91,0v27.82h5.21c.05.68.1,1.2.1,1.73,0,4.53.06,9.06,0,13.59,0,1.29.41,1.61,1.63,1.58,2.91-.08,5.82,0,8.85,0V186.9H123.38V136.42Zm47.62,44.88c.59,0,1,.07,1.38.07,9.61,0,19.23,0,28.84,0,1.29,0,1.47-.49,1.46-1.59q0-18,0-35.93c0-1.56-.5-1.93-2-1.93q-40.3.06-80.62,0c-1.51,0-2,.35-2,1.9.06,12,0,23.95,0,35.93,0,.49.06,1,.09,1.59h1.6c9.41,0,18.82,0,28.23,0,1.38,0,1.78-.35,1.77-1.75-.06-10,0-19.93,0-29.9V148h21.18Zm-42.2-56v11H200.6a3.69,3.69,0,0,0,1.2,0c.29-.1.72-.45.72-.69,0-3.41,0-6.82,0-10.31Zm36.78,28.13c-3.07,0-6,.06-8.89,0-1.25,0-1.61.34-1.61,1.6.06,7.9,0,15.8,0,23.7,0,2.64,0,2.64,2.63,2.64h7.84Zm-15.77-33.93c0-3.52,0-6.89-.05-10.25,0-.28-.79-.77-1.22-.78-3.37-.07-6.74-.06-10.12,0-1.43,0-3.33-.36-4.16.39s-.27,2.64-.28,4c0,2.2,0,4.39,0,6.63Zm21.26,0h15.61V108.57H181.54Zm-29-16.64h3.63c4.27,0,4.24,0,4.17-4.29,0-1-.31-1.3-1.3-1.29-3.47,0-6.94,0-10.42,0-4.38,0-4.36,0-4.17,4.44,0,.84.3,1.15,1.15,1.13C147.88,102.83,150.2,102.86,152.51,102.86Zm29-.1h15.61V97.4H181.54Z" transform="translate(0.22 0.16)"/><path class="cls-3" d="M70.51,19.09h5.14v5.53H70.51Z" transform="translate(0.22 0.16)"/><path class="cls-3" d="M86.24,24.63H81.06v-5.5h5.18Z" transform="translate(0.22 0.16)"/><path class="cls-3" d="M96.79,24.64H91.64v-5.5h5.15Z" transform="translate(0.22 0.16)"/><path class="cls-3" d="M107.36,24.64h-5.15v-5.5h5.15Z" transform="translate(0.22 0.16)"/><path class="cls-3" d="M117.93,24.64h-5.15v-5.5h5.15Z" transform="translate(0.22 0.16)"/><path class="cls-3" d="M107.43,122.68v5.43h-5.2v-5.43Z" transform="translate(0.22 0.16)"/><path class="cls-3" d="M112.77,128.14v-5.43H118v5.43Z" transform="translate(0.22 0.16)"/><path class="cls-3" d="M86.24,47H81.06v-5.5h5.18Z" transform="translate(0.22 0.16)"/><path class="cls-3" d="M59.92,145h5.21v5.48H59.92Z" transform="translate(0.22 0.16)"/><path class="cls-3" d="M65.13,41.5V47H59.94V41.5Z" transform="translate(0.22 0.16)"/><path class="cls-3" d="M75.73,41.47v5.46H70.49V41.47Z" transform="translate(0.22 0.16)"/><path class="cls-3" d="M70.48,150.45V145h5.21v5.44Z" transform="translate(0.22 0.16)"/><path class="cls-3" d="M96.79,47H91.64V41.49h5.15Z" transform="translate(0.22 0.16)"/><path class="cls-3" d="M81.07,145h5.19v5.47H81.07Z" transform="translate(0.22 0.16)"/><path class="cls-3" d="M96.82,150.47H91.65V145h5.17Z" transform="translate(0.22 0.16)"/><path class="cls-3" d="M112.75,150.47V145H118v5.45Z" transform="translate(0.22 0.16)"/><path class="cls-3" d="M123.38,111.46h5.13v5.47h-5.13Z" transform="translate(0.22 0.16)"/><path class="cls-3" d="M75.71,128.13H70.49V122.7h5.22Z" transform="translate(0.22 0.16)"/><path class="cls-3" d="M91.62,122.66h5.23v5.43H91.62Z" transform="translate(0.22 0.16)"/><path class="cls-3" d="M75.8,35.78V30.33h5.13v5.45Z" transform="translate(0.22 0.16)"/><path class="cls-3" d="M91.5,30.32v5.47H86.43V30.32Z" transform="translate(0.22 0.16)"/><path class="cls-3" d="M97,35.76V30.29H102v5.47Z" transform="translate(0.22 0.16)"/><path class="cls-3" d="M107.54,30.26h5.07v5.5h-5.07Z" transform="translate(0.22 0.16)"/><path class="cls-3" d="M70.37,30.31V35.8H65.28V30.31Z" transform="translate(0.22 0.16)"/><path class="cls-3" d="M54.73,52.63h5.05v5.49H54.73Z" transform="translate(0.22 0.16)"/><path class="cls-3" d="M65.3,52.62h5.06v5.51H65.3Z" transform="translate(0.22 0.16)"/><path class="cls-3" d="M81,52.64v5.47H75.83V52.64Z" transform="translate(0.22 0.16)"/><path class="cls-3" d="M107.54,139.28v-5.44h5.07v5.44Z" transform="translate(0.22 0.16)"/><path class="cls-3" d="M65.29,133.83h5.08v5.48H65.29Z" transform="translate(0.22 0.16)"/><path class="cls-3" d="M75.85,133.83h5.09v5.48H75.85Z" transform="translate(0.22 0.16)"/><path class="cls-3" d="M91.51,139.31H86.42v-5.45h5.09Z" transform="translate(0.22 0.16)"/><path class="cls-3" d="M97,133.82h5.07v5.48H97Z" transform="translate(0.22 0.16)"/><path class="cls-3" d="M86.4,58.13V52.62h5.09v5.51Z" transform="translate(0.22 0.16)"/><path class="cls-3" d="M59.78,161.69H54.73v-5.47h5.05Z" transform="translate(0.22 0.16)"/><path class="cls-3" d="M65.25,161.57v-5.34h5.1v5.34Z" transform="translate(0.22 0.16)"/><path class="cls-3" d="M91.5,161.69H86.44v-5.48H91.5Z" transform="translate(0.22 0.16)"/><path class="cls-3" d="M97,161.63v-5.45h5.09v5.45Z" transform="translate(0.22 0.16)"/><path class="cls-3" d="M107.51,161.65v-5.44h5.12v5.44Z" transform="translate(0.22 0.16)"/><path class="cls-3" d="M165.5,69.44v5.41h-5.09V69.44Z" transform="translate(0.22 0.16)"/><path class="cls-3" d="M149.8,74.85v-5.4h5.09v5.4Z" transform="translate(0.22 0.16)"/><path class="cls-3" d="M192,148v5.38h-5.21V148Z" transform="translate(0.22 0.16)"/><path class="cls-3" d="M197.32,153.34V148h5.21v5.39Z" transform="translate(0.22 0.16)"/><path class="cls-3" d="M197.29,175.71v-5.37h5.25v5.37Z" transform="translate(0.22 0.16)"/><path class="cls-3" d="M191.93,164.54h-5.17v-5.38h5.17Z" transform="translate(0.22 0.16)"/><path class="cls-3" d="M202.5,164.54h-5.17v-5.38h5.17Z" transform="translate(0.22 0.16)"/><path class="cls-3" d="M192,170.31v5.37h-5.26v-5.37Z" transform="translate(0.22 0.16)"/><path class="cls-3" d="M154.9,164.55h-5.07v-5.38h5.07Z" transform="translate(0.22 0.16)"/><path class="cls-3" d="M144.35,153.38h-5.1V148h5.1Z" transform="translate(0.22 0.16)"/><path class="cls-3" d="M154.94,148v5.39h-5.09V148Z" transform="translate(0.22 0.16)"/><path class="cls-3" d="M139.22,175.71v-5.4h5.1v5.4Z" transform="translate(0.22 0.16)"/><path class="cls-3" d="M154.91,175.73h-5.09v-5.39h5.09Z" transform="translate(0.22 0.16)"/><path class="cls-3" d="M144.34,164.56h-5.09v-5.39h5.09Z" transform="translate(0.22 0.16)"/></svg>