<svg id="Layer_1" data-name="Layer 1" xmlns="http://www.w3.org/2000/svg" viewBox="0 0 276.91 273.35"><defs><style>.cls-1{fill:#f18e21;}.cls-2{font-size:22.77px;font-family:Roboto-Bold, Roboto;font-weight:700;}.cls-2,.cls-3{fill:#9bc2be;}</style></defs><rect class="cls-1" width="273.67" height="273.35" rx="24.45"/><text class="cls-2" transform="translate(2.2 216.4)">Ch13. SDG11: Sustainable <tspan x="12.4" y="27.32">Cities and Communities</tspan></text><path class="cls-3" d="M134.42,103.69v84.16c0,2.17,0,2.19-1.67,2.19H97.07c-1.38,0-1.58-.25-1.58-2.06V19.22c0-1.83.19-2.08,1.57-2.08H133c1.35,0,1.43.11,1.43,1.95Zm-22.87,2.15c0-1.93,0-3.85,0-5.78,0-1.07-.3-1.52-1.09-1.51-2.53,0-5.07,0-7.6,0-.73,0-1.1.42-1.1,1.42q0,5.84,0,11.66c0,.93.31,1.38,1,1.37q3.89,0,7.78,0c.73,0,1-.45,1-1.39C111.54,109.69,111.55,107.76,111.55,105.84Zm0-29.31c0-2,0-3.92,0-5.89,0-1-.3-1.35-1-1.35q-3.84,0-7.69,0c-.75,0-1.08.44-1.08,1.42q0,5.78,0,11.55c0,1,.3,1.48,1,1.48h7.78c.65,0,1-.4,1-1.32C111.54,80.45,111.55,78.49,111.55,76.53Zm16.75,0c0-2,0-3.93,0-5.89,0-1-.26-1.38-1-1.37-2.57,0-5.13,0-7.69,0-.75,0-1.1.42-1.1,1.4V82.35c0,.9.33,1.39,1,1.39h7.78c.71,0,1-.47,1-1.42C128.27,80.4,128.3,78.47,128.3,76.55Zm0,29.28c0-1.92,0-3.85,0-5.77,0-1.08-.3-1.52-1.08-1.51-2.53,0-5.07,0-7.6,0-.74,0-1.1.47-1.1,1.44v11.66c0,.92.31,1.36,1,1.35q3.89,0,7.77,0c.67,0,1-.35,1-1.28C128.28,109.76,128.3,107.79,128.3,105.83Zm-16.75,58.49c0-1.93,0-3.85,0-5.77,0-1-.27-1.38-1-1.37q-3.9,0-7.78,0c-.73,0-1,.48-1,1.39v11.66c0,.94.36,1.4,1,1.4h7.77c.71,0,1-.47,1-1.43C111.53,168.24,111.55,166.28,111.55,164.32Zm16.75.13c0-2,0-3.93,0-5.89,0-.94-.24-1.39-1-1.38q-3.89,0-7.77,0c-.67,0-1,.37-1,1.25v11.89c0,.8.33,1.29.94,1.3,2.65,0,5.29,0,7.94,0,.61,0,.91-.41.89-1.29C128.28,168.37,128.3,166.41,128.3,164.45Zm-16.75-29.32c0-2,0-3.92,0-5.88,0-.89-.2-1.31-.92-1.3q-3.93,0-7.86,0c-.69,0-1,.37-1,1.26,0,3.92,0,7.85,0,11.77,0,.89.32,1.26,1,1.26q3.93,0,7.86,0c.65,0,.92-.34.91-1.21C111.54,139.06,111.55,137.1,111.55,135.13ZM128.3,47.31c0-2,0-3.92,0-5.88,0-1-.3-1.39-1.06-1.38q-3.84.06-7.69,0c-.73,0-1,.43-1,1.34V53.05c0,.85.26,1.3,1,1.29q3.93,0,7.86,0c.69,0,1-.33,1-1.25C128.28,51.16,128.3,49.24,128.3,47.31Zm-16.75,0c0-2,0-4,0-6,0-.87-.26-1.23-.91-1.22q-3.93,0-7.86,0c-.68,0-1,.38-1,1.26,0,3.93,0,7.85,0,11.78,0,.88.3,1.26,1,1.25q3.93,0,7.86,0c.71,0,.93-.4.92-1.29C111.54,51.12,111.55,49.2,111.55,47.27Zm16.75,87.94c0-2,0-4,0-6,0-.93-.26-1.27-1-1.26-2.59,0-5.19,0-7.78,0-.79,0-1.06.46-1.06,1.42q0,5.72,0,11.43c0,1,.26,1.45,1,1.44,2.6,0,5.19,0,7.78,0,.68,0,1-.32,1-1.26C128.28,139.06,128.3,137.13,128.3,135.21Z" transform="translate(0.22 0.16)"/><path class="cls-3" d="M178.7,119.59v68.62c0,1.91-.11,2.06-1.54,2.06H141.32c-1.4,0-1.52-.17-1.52-2.09q0-37.2,0-74.4a4.84,4.84,0,0,1,.66-2.58Q155.6,85.54,170.7,59.83c2-3.35,3.92-6.72,5.91-10,.36-.6.64-1.61,1.43-1.26s.66,1.36.66,2.22Zm-21-11.45h0c0-3.29,0-6.57,0-9.85a2,2,0,0,0-.84-1.93c-.63-.33-1.07.14-1.45.77q-5.06,8.49-10.13,17a6.48,6.48,0,0,0-.88,3.77c.06,1.67.38,2.16,1.61,2.16,3.27,0,6.54,0,9.81,0,1.56,0,1.88-.41,1.89-2.49ZM168,102.8c1.74,0,3.49,0,5.24,0,1,0,1.39-.55,1.39-1.86,0-2.79,0-5.59,0-8.38,0-1.28-.41-1.9-1.38-1.91-3.49,0-7,0-10.48,0-1,0-1.3.55-1.31,1.84V101c0,1.34.36,1.82,1.38,1.83C164.55,102.81,166.27,102.8,168,102.8Zm0,5.23c-1.8,0-3.6,0-5.4,0-.9,0-1.17.36-1.17,1.55q0,4.35,0,8.7c0,1.23.35,1.72,1.26,1.73h10.56c.92,0,1.33-.55,1.34-1.8,0-2.83,0-5.65,0-8.48,0-1.26-.35-1.7-1.27-1.7C171.58,108,169.8,108,168,108Zm0,17.21h-5.24c-1.07,0-1.32.34-1.33,1.81v8.37c0,1.31.35,1.8,1.3,1.8,3.52,0,7,0,10.55,0,.93,0,1.32-.54,1.32-1.81q0-4.24,0-8.48c0-1.23-.37-1.69-1.29-1.69Zm0,17.22h-5.24c-1,0-1.31.36-1.32,1.72v8.48c0,1.32.34,1.79,1.3,1.79q5.28,0,10.56,0c.9,0,1.3-.5,1.31-1.7,0-2.86,0-5.73,0-8.59,0-1.23-.37-1.69-1.29-1.7C171.56,142.45,169.78,142.46,168,142.46Zm-16.94,0h-5.31c-1,0-1.35.44-1.35,1.73q0,4.25,0,8.48c0,1.29.39,1.78,1.34,1.78,3.52,0,7,0,10.55,0,.94,0,1.25-.45,1.25-1.71,0-2.87,0-5.73,0-8.6,0-1.33-.26-1.67-1.24-1.68C154.56,142.45,152.82,142.46,151.07,142.46Zm17,29.21c1.75,0,3.49,0,5.24,0,.95,0,1.34-.49,1.34-1.76q0-4.24,0-8.48c0-1.28-.38-1.75-1.35-1.75-3.52,0-7,0-10.55,0-1,0-1.26.41-1.26,1.69q0,4.23,0,8.48c0,1.39.33,1.82,1.36,1.82C164.55,171.68,166.3,171.68,168,171.67Zm-17-34.43h5.15c1.08,0,1.39-.44,1.39-1.91,0-2.79,0-5.59,0-8.38,0-1.36-.24-1.7-1.22-1.7q-5.33,0-10.65,0c-.89,0-1.26.44-1.27,1.6q0,4.31,0,8.61c0,1.27.41,1.77,1.36,1.78Zm0,22.44c-1.74,0-3.49,0-5.24,0-.93,0-1.3.44-1.31,1.68,0,2.87,0,5.74,0,8.61,0,1.21.41,1.7,1.31,1.7q5.29,0,10.57,0c1,0,1.26-.44,1.26-1.7q0-4.31,0-8.61c0-1.29-.29-1.67-1.26-1.68C154.51,159.67,152.74,159.68,151,159.68Zm23.65-83.55h0q0-3.73,0-7.47c0-.83-.25-1.61-.86-1.71a1.47,1.47,0,0,0-1.29.67q-4.57,7.47-9,15.06a3.06,3.06,0,0,0-.28,1.83c.13.82.75.87,1.31.86H173c1.27,0,1.63-.48,1.64-2.22C174.62,80.8,174.61,78.46,174.61,76.13Z" transform="translate(0.22 0.16)"/><path class="cls-3" d="M183.4,163.6V138.7c0-1.72.15-1.91,1.4-1.91h36.85c1.25,0,1.53.36,1.53,2.06v49.59c0,1.72-.26,2.06-1.53,2.06H184.8c-1.3,0-1.4-.14-1.4-1.87Zm28.79-8.95h0c1.75,0,3.5,0,5.24,0,1.15,0,1.51-.56,1.51-2.07q0-4,0-8c0-1.55-.34-2-1.51-2H207c-1.21,0-1.6.55-1.6,2.21q0,3.79,0,7.59c0,1.81.39,2.33,1.77,2.35ZM194.85,142.5c-1.8,0-3.61,0-5.41,0-1,0-1.4.56-1.4,1.87,0,2.76,0,5.51,0,8.27,0,1.38.39,2,1.43,2,3.55,0,7.1,0,10.65,0,1,0,1.41-.58,1.41-2q0-4.08,0-8.15c0-1.55-.34-2-1.51-2Zm0,29.17c1.83,0,3.66,0,5.49,0,.87,0,1.23-.49,1.23-1.65,0-2.87,0-5.73,0-8.6,0-1.22-.37-1.73-1.28-1.73q-5.44,0-10.89,0c-.89,0-1.3.52-1.31,1.73q0,4.25,0,8.49c0,1.27.4,1.76,1.35,1.76C191.19,171.68,193,171.68,194.8,171.67Zm17.39,0h5.41c1,0,1.34-.45,1.34-1.74q0-4.25,0-8.49c0-1.26-.38-1.75-1.35-1.75-3.58,0-7.15,0-10.73,0-1,0-1.42.54-1.43,1.94,0,2.72,0,5.43,0,8.15,0,1.42.39,1.9,1.44,1.9Z" transform="translate(0.22 0.16)"/><path class="cls-3" d="M69.87,147.43H88.55c1.26,0,1.39.17,1.39,1.9v38.72c0,1.72-.2,2-1.46,2-3.66,0-7.33,0-11,0-.74,0-1-.28-1-1.28,0-7.74,0-15.48,0-23.22,0-1.85-.3-2.25-1.68-2.25H64.63c-1.43,0-1.77.47-1.77,2.43,0,7.62,0,15.25,0,22.87,0,1.17-.25,1.47-1.1,1.45-3.52-.06-7,0-10.56,0-1.17,0-1.4-.3-1.4-1.84V149.24c0-1.62.15-1.81,1.37-1.81Z" transform="translate(0.22 0.16)"/><path class="cls-3" d="M70,142.46H51.78a1.46,1.46,0,0,1-.59,0c-.37-.19-.89-.33-1-.71a2.34,2.34,0,0,1,.25-1.48c1.42-2.59,2.88-5.12,4.33-7.67l14.09-24.74c.89-1.55,1.26-1.56,2.17,0Q80.32,124,89.63,140.19c.23.39.47,1.26.33,1.45a1.77,1.77,0,0,1-1.26.79C82.45,142.48,76.2,142.46,70,142.46Z" transform="translate(0.22 0.16)"/><path class="cls-3" d="M203.13,132.3H184.7c-1.23,0-1.27-.07-1.28-1.74v-8.49c0-1.67.11-1.82,1.35-1.82h34.57c.84,0,1.69,0,2.53,0s1.16.26,1.16,1.5q0,4.53,0,9.06c0,1.32-.12,1.48-1.14,1.48Z" transform="translate(0.22 0.16)"/></svg>