<svg id="Layer_1" data-name="Layer 1" xmlns="http://www.w3.org/2000/svg" viewBox="0 0 273.67 273.35"><defs><style>.cls-1{fill:#f18e21;}.cls-2{font-size:24.03px;font-family:Roboto-Bold, Roboto;font-weight:700;}.cls-2,.cls-3{fill:#9bc2be;}</style></defs><rect class="cls-1" width="273.67" height="273.35" rx="24.45"/><text class="cls-2" transform="translate(41.31 242.66)">Ch5. Wind Energy</text><path class="cls-3" d="M154.69,112.12V114q.13,25.53.24,51.05c0,1.39.39,1.81,1.87,2.12A51.46,51.46,0,0,1,167,170a15.76,15.76,0,0,1,9.7,16.07,25.14,25.14,0,0,1-3.41,10.89c-3.66,6.5-13.75,8-18.13,0-2.65-4.79-3.78-10-4.42-15.33-.4-3.35-.62-6.73-.95-10.41H88.13c0,1.5-.09,3.2,0,4.89.53,8.51-1.76,12.36-11.72,15.78-2.93,1-6.21,1.18-9.35,1.44-2.86.23-5.75.07-8.63,0-2.12,0-3.14-1-3.18-3.08-.05-2.44,0-4.87,0-7.57-1.92,0-3.73,0-5.54,0-2,0-3.26-1-3.22-2.62,0-1.41,1.36-2.45,3.23-2.48s3.52,0,5.4,0V161.34H49.91c-2,0-3.37-1-3.41-2.46s1.29-2.55,3.48-2.56h5.28c0-2.43,0-4.67,0-6.92,0-2.43.89-3.47,3.39-3.41,5.36.12,10.78,0,16.05.86,3,.47,6,2.24,8.68,3.92,3.36,2.09,4.8,5.43,4.76,9.33,0,1.89,0,3.78,0,5.92h61.32V113.75A19.22,19.22,0,0,0,147,115c-9.43,6.86-20.1,11.4-31,15.6-8.48,3.28-17.14,6-26.25,6.9a37.08,37.08,0,0,1-10-.6c-3.62-.64-5.56-3.88-4.25-7.15a19.13,19.13,0,0,1,4-5.74,40.31,40.31,0,0,1,5.92-5c10.85-7.82,23-13.08,35.71-17.35,6.33-2.12,12.82-3.78,19.52-5.73-.31-1.26-.7-2.91-1.12-4.55-2.64-10.36-3.18-20.91-2.83-31.51.3-8.92,1.19-17.8,4-26.36a30.25,30.25,0,0,1,3.57-7.56c3.21-4.77,8.37-4.71,11.66,0,2.44,3.48,3.56,7.48,4.66,11.53,3.79,14,3.5,28.19,2.32,42.43a76.18,76.18,0,0,1-1.38,8.62c-.37,1.83-1,3.59-1.56,5.31,4.22,1.2,8.34,2.26,12.38,3.54,9.9,3.14,19.18,7.62,28.3,12.47A99,99,0,0,1,220,123.13a27.59,27.59,0,0,1,5.33,6.52c3,5.09.21,9.55-5.86,9.86-5.08.26-10-.79-14.81-2-9.93-2.53-19.15-6.66-28.19-11.31A136.87,136.87,0,0,1,154.69,112.12ZM158.09,63a96.53,96.53,0,0,0-3-26,45.61,45.61,0,0,0-3.33-8.23c-.81-1.61-1.84-1.52-2.86,0a21.67,21.67,0,0,0-2.38,4.31,62.48,62.48,0,0,0-2.08,7.37c-2.3,10.31-2.6,20.77-2.13,31.24.41,8.79,1.57,17.5,4.73,25.85a2.41,2.41,0,0,1-2,3.35c-1.25.27-2.54.35-3.81.56-13.67,2.32-26.34,7.42-38.63,13.45-6.39,3.12-12.6,6.59-17.89,11.36a21.31,21.31,0,0,0-3.22,3.63c-1.12,1.61-.75,2.25,1.22,2.7a5.37,5.37,0,0,0,1.64.15c3.22-.29,6.48-.39,9.64-1,9.68-1.83,18.89-5.16,27.92-9,4-1.67,7.78-3.71,11.67-5.58a77.12,77.12,0,0,0,17.1-11.79c1.82-1.58,2.76-1.62,4.68,0,3.89,3.23,7.73,6.55,11.88,9.44a122.71,122.71,0,0,0,26.19,13.37,168.36,168.36,0,0,0,17.22,5.38,36.82,36.82,0,0,0,8.35.86c2.26.06,2.81-.86,1.52-2.59A41.46,41.46,0,0,0,215.1,126C207,118.75,197.35,113.7,187.53,109s-20.07-8.66-31.1-10.1c-2.07-.28-2.84-1.52-2.26-3.44C157.22,85.35,158.15,75,158.09,63ZM60.63,188.17c2.16,0,4.11-.06,6.06,0a22.66,22.66,0,0,0,12.9-3.26,5.78,5.78,0,0,0,3.18-5.24c-.06-6.65.06-13.31-.08-20a7.15,7.15,0,0,0-1.46-3.86A10.29,10.29,0,0,0,78,153.58c-5.44-3.2-11.43-2.66-17.41-2.57Zm94.49-16.34c.24,3.2.32,6,.68,8.85A43.15,43.15,0,0,0,159.35,194c1.73,3.6,6.76,4.58,9.22.25a20.52,20.52,0,0,0,2.14-6c1.49-7.27-1.48-12.47-8.37-14.74C160.11,172.81,157.74,172.44,155.12,171.83Z" transform="translate(0.22 0.16)"/><path class="cls-3" d="M204.24,53.76c-.82.92-1.29,1.82-2,2.21a2.71,2.71,0,0,1-3.6-.72c-1.12-1.41-2.19-2.87-3.35-4.24a61.82,61.82,0,0,0-19.18-14.92c-4.17-2.17-8.74-3.61-13.1-5.43a5.07,5.07,0,0,1-2.31-1.49,2.63,2.63,0,0,1,.12-2.44,3.13,3.13,0,0,1,3.63-.92c2.93,1,5.87,2,8.74,3.19a66,66,0,0,1,28.19,21.16C202.22,51.31,203.15,52.41,204.24,53.76Z" transform="translate(0.22 0.16)"/><path class="cls-3" d="M72.8,112.58c.13-10.24,1.69-19.16,5.64-27.54a100,100,0,0,1,5-8.81,2.72,2.72,0,0,1,3.64-1.1A2.58,2.58,0,0,1,88,78.86a73.09,73.09,0,0,0-8.32,20.42c-1.7,6.53-1.5,13-1.2,19.58,0,.23.08.47.11.7A2.82,2.82,0,0,1,76.14,123c-1.26.16-2.43-.89-2.8-2.53a4.19,4.19,0,0,1-.1-.71C73.07,117,72.9,114.26,72.8,112.58Z" transform="translate(0.22 0.16)"/><path class="cls-3" d="M173.19,167.27a2.94,2.94,0,0,1-2.51-2.53,2.4,2.4,0,0,1,2.06-2.9c2.33-.46,4.71-.7,7-1.22A57.09,57.09,0,0,0,200.5,152c4.05-2.83,7.9-5.95,11.71-9.08a3.58,3.58,0,0,1,4.17-.66c1.57.78,1.63,2.72.15,4-8.86,8-18.59,14.62-30.39,17.86C181.86,165.35,177.51,166.25,173.19,167.27Z" transform="translate(0.22 0.16)"/><path class="cls-3" d="M88.9,107.71a30.93,30.93,0,0,1,2.84-12.43A3.52,3.52,0,0,1,96,93.22c1.48.57,1.92,2.22,1,4.13A25.88,25.88,0,0,0,94.45,110,2.59,2.59,0,0,1,92,113a2.49,2.49,0,0,1-3.1-2.22C88.82,109.73,88.9,108.72,88.9,107.71Z" transform="translate(0.22 0.16)"/><path class="cls-3" d="M182.66,54.4c-.66.8-1.13,1.92-1.81,2.06a4.78,4.78,0,0,1-3.16-.58c-1.37-.83-2.38-2.21-3.72-3.08-2.58-1.68-5.23-3.26-7.95-4.69-1.91-1-2.7-2.16-2-3.77s2.23-1.9,4.21-1C173,45.47,177.54,48,181.05,52A21.3,21.3,0,0,1,182.66,54.4Z" transform="translate(0.22 0.16)"/><path class="cls-3" d="M199.88,139.09a11,11,0,0,1-1.49,2.19,35.91,35.91,0,0,1-14.8,7.43,2.49,2.49,0,0,1-3.38-1.81c-.42-1.46.33-2.69,2.08-3.18a33.14,33.14,0,0,0,12.9-6.4,3.74,3.74,0,0,1,3-.24C198.85,137.27,199.25,138.3,199.88,139.09Z" transform="translate(0.22 0.16)"/><path class="cls-3" d="M78.28,170.94c0,1.6,0,3.2,0,4.81a8.39,8.39,0,0,1-6.83,8,2.51,2.51,0,0,1-3.11-1.55,2.26,2.26,0,0,1,1.36-3.23c3-.91,3.44-2.88,3.25-5.51s-.06-5.1,0-7.65c0-2.12,1-3.34,2.71-3.36s2.64,1.25,2.65,3.37C78.29,167.5,78.28,169.22,78.28,170.94Z" transform="translate(0.22 0.16)"/></svg>