<svg id="Layer_1" data-name="Layer 1" xmlns="http://www.w3.org/2000/svg" viewBox="0 0 273.67 273.35"><defs><style>.cls-1{fill:#f18e21;}.cls-2{font-size:24.03px;font-family:Roboto-Bold, Roboto;font-weight:700;}.cls-2,.cls-3{fill:#9bc2be;}</style></defs><rect class="cls-1" width="273.67" height="273.35" rx="24.45"/><text class="cls-2" transform="translate(40.32 242.43)">Ch6. Solar Energy</text><path class="cls-3" d="M72.19,185.5H69.78c-6.12,0-12.25,0-18.37,0-4,0-5.77-2.62-4.52-6.38q12.64-38,25.32-75.89c.84-2.53,2.11-3.43,4.75-3.43q59.52,0,119,0c2.65,0,3.94.9,4.77,3.4q12.71,38,25.37,76.08c1.18,3.55-.62,6.16-4.36,6.21-6.18.07-12.37,0-18.55,0H200.8v2.09c0,3.49,0,7,0,10.47,0,2.83-1.73,4.5-4.59,4.54-.3,0-.61,0-.91,0H77.72c-4.15,0-5.53-1.36-5.53-5.44Zm120,.15H81v8.18H192.14Zm-51.2-8.83h37c-1.45-5.23-2.92-10.32-4.27-15.45a1.8,1.8,0,0,0-2.12-1.61c-9.67.06-19.34,0-29,0-.53,0-1.06.07-1.63.12Zm-8.9-17H103.53c-3.77,0-3.78,0-4.78,3.62-1.24,4.44-2.45,8.89-3.68,13.36h37Zm54.9,17.06h29.24c-.2-.64-.37-1.21-.55-1.77-1.5-4.51-3.06-9-4.47-13.54a2.09,2.09,0,0,0-2.41-1.78c-8.19.07-16.39,0-24.58,0-.58,0-1.15.08-1.92.13C183.84,165.68,185.37,171.19,186.94,176.85Zm-130.14,0H86.08c1.56-5.65,3.1-11.2,4.7-17H66.09c-3.65,0-3.66,0-4.82,3.48Q59,170,56.8,176.8Zm75.26-25.69v-17H111.31c-4.41,0-4.42,0-5.6,4.23s-2.32,8.44-3.51,12.79Zm8.89,0h29.86c-1.53-5.5-3-10.84-4.56-16.15-.13-.41-1.1-.8-1.68-.81-7.41-.05-14.81,0-22.22,0a14,14,0,0,0-1.4.16Zm-75.63.12c9.15,0,18,0,26.88-.06.46,0,1.14-.76,1.31-1.29.92-3,1.73-6,2.56-9,.61-2.2,1.19-4.41,1.84-6.79-8.83,0-17.39,0-26,0a1.58,1.58,0,0,0-1.19.81C68.94,140.24,67.19,145.56,65.32,151.2Zm109.73-17.11c1.51,5.42,3,10.5,4.33,15.62a1.67,1.67,0,0,0,2,1.51c7.09,0,14.18,0,21.28,0h4.91c-.17-.64-.26-1.11-.41-1.55-1.55-4.69-3.16-9.35-4.63-14.06a1.91,1.91,0,0,0-2.24-1.53c-5.08.06-10.15,0-15.23,0ZM73.92,125.4h26.44c1.56-5.62,3.11-11.21,4.71-17-8.45,0-16.57,0-24.69,0a1.39,1.39,0,0,0-1,.76C77.52,114.53,75.75,119.89,73.92,125.4Zm125.16,0c-1.84-5.53-3.57-10.85-5.42-16.12a2.07,2.07,0,0,0-1.65-.89c-7.52-.06-15,0-22.56,0a12.36,12.36,0,0,0-1.49.2c1.6,5.73,3.14,11.28,4.69,16.84Zm-35.41,0c-1.51-5.48-2.93-10.77-4.49-16-.14-.48-1.14-1-1.75-1-4.64-.08-9.29,0-13.93,0H141v17.06Zm-31.6-17.06h-14.3c-3.72,0-3.73,0-4.7,3.48-1.24,4.49-2.47,9-3.72,13.52h22.72Z" transform="translate(0.22 0.16)"/><path class="cls-3" d="M139.14,56.86c17,1,31.45,9.81,40.22,27.52,1.28,2.58.74,4.88-1.24,6.16-2.37,1.54-5.13.61-6.45-2.25a38.52,38.52,0,0,0-69.77-1.1c-.24.49-.45,1-.71,1.49a4.28,4.28,0,0,1-5.7,2.19,4.11,4.11,0,0,1-2.12-5.68,77.58,77.58,0,0,1,7.15-11.47C109.21,63,122.74,56.85,139.14,56.86Z" transform="translate(0.22 0.16)"/><path class="cls-3" d="M132.14,35.32c0-2.69,0-5.37,0-8.06s1.78-4.64,4.32-4.65a4.28,4.28,0,0,1,4.38,4.6q.06,8.25,0,16.48c0,2.79-1.81,4.65-4.33,4.66s-4.33-1.84-4.36-4.61S132.14,38.12,132.14,35.32Z" transform="translate(0.22 0.16)"/><path class="cls-3" d="M70.18,61.21a12.09,12.09,0,0,1,2,.79q7.08,4,14.13,8.15c2.53,1.48,3.3,4,2,6.19s-3.79,2.71-6.23,1.32q-7.32-4.18-14.6-8.45a4.15,4.15,0,0,1-2-4.84C66,62.38,67.59,61.2,70.18,61.21Z" transform="translate(0.22 0.16)"/><path class="cls-3" d="M188.65,78.46a4.49,4.49,0,0,1-4.36-3,4.06,4.06,0,0,1,1.61-4.84q7.8-4.64,15.71-9.05a4.11,4.11,0,0,1,5.53,1.78,4,4,0,0,1-1.21,5.52c-5.23,3.15-10.55,6.15-15.86,9.17A4.79,4.79,0,0,1,188.65,78.46Z" transform="translate(0.22 0.16)"/><path class="cls-3" d="M97.48,32.94a4.25,4.25,0,0,1,4.14,2.17c2.9,5,5.79,9.91,8.62,14.9a4.3,4.3,0,0,1-1.5,5.92,4.26,4.26,0,0,1-5.91-1.54c-3-5-5.87-10-8.68-15.08A4.17,4.17,0,0,1,97.48,32.94Z" transform="translate(0.22 0.16)"/><path class="cls-3" d="M166.75,56.88c-3.45-.38-5.68-3.6-4.17-6.41,2.87-5.31,5.94-10.52,9-15.7A4.27,4.27,0,0,1,179,39.05c-2.9,5.22-5.88,10.42-9,15.51C169.33,55.6,167.85,56.12,166.75,56.88Z" transform="translate(0.22 0.16)"/></svg>